<?xml version="1.0" encoding="UTF-8"?>
<svg id="Layer_2" data-name="Layer 2" xmlns="http://www.w3.org/2000/svg" viewBox="0 0 404.34 392.02">
  <defs>
    <style>
      .cls-1 {
        fill: #32327b;
      }

      .cls-2 {
        fill: #18104b;
      }

      .cls-3 {
        stroke: #32327b;
        stroke-linecap: round;
        stroke-linejoin: round;
        stroke-width: 10px;
      }

      .cls-3, .cls-4 {
        fill: #3e62ae;
      }

      .cls-5 {
        fill: #262262;
      }
    </style>
  </defs>
  <g id="box">
    <g>
      <path id="main-blueberry" class="cls-3" d="M5,196.01C5,90.52,90.52,5,196.01,5s191.01,85.52,191.01,191.01-85.52,191.01-191.01,191.01"/>
      <path id="main-blueberry-2" data-name="main-blueberry" class="cls-3" d="M196.01,387.02c-105.49,0-191.01-85.52-191.01-191.01"/>
    </g>
    <g id="blueberry-stem">
      <path class="cls-5" d="M250.27,253.76c-3.75,0-7.48-.37-11.08-1.1-2.22-.45-3.86-2.34-4-4.6l-1.88-31.14s-37.44.09-37.45.09c-1.61,0-4.91,0-7.53-2.29-1.72-1.5-2.71-3.51-2.86-5.81-.28-4.55,2.9-8.63,4.29-10.17,6.51-7.26,13.45-14.25,20.68-20.84l-26.14-18.53c-5.54-3.93-11.83-8.38-16.15-14.82-4.57-6.8-5.8-16.63.69-22.27,3.37-2.93,7.68-3.54,10.63-3.75,1.24-.09,2.54-.13,3.99-.13,1.81,0,3.61.07,5.35.13,1.73.06,3.36.12,4.99.12,1.25,0,2.36-.04,3.38-.11,3.21-.23,9.03-1.21,11.95-5.16,3.65-4.94,1.76-12.84-.82-20.63l-7.18-21.68c-.63-1.9-.07-3.99,1.43-5.32.93-.83,2.12-1.26,3.32-1.26.72,0,1.45.16,2.14.48,5.19,2.45,15.59,7.34,17.81,8.28,6.08,2.58,12.62,5.11,19.46,7.52,1.3.46,2.58.69,3.82.69,7.14,0,12.87-7.83,15.65-12.5,4.57-7.68,6.89-16.81,9.12-25.64.5-1.98,2.15-3.45,4.17-3.73.23-.03.46-.05.68-.05,1.77,0,3.44.94,4.34,2.51,5.04,8.79,10.86,17.2,17.31,25,2.14,2.59,4.46,5.23,7.17,6.6,3.29,1.66,7.58,1.72,11.74,1.77,3.07.04,6.16.08,9.24.08,9.38,0,20.38-.33,30.78-2.78.38-.09.76-.13,1.15-.13,1.04,0,2.07.33,2.93.95,1.18.85,1.92,2.17,2.05,3.61.81,9.01-.2,18.33-2.91,26.95-.35,1.12-.73,2.24-1.11,3.36-1.45,4.25-2.82,8.27-2.31,11.91.29,2.08,1.26,4.39,3.04,7.27,7.23,11.67,19.58,20.21,33.05,22.85,2.01.39,3.58,1.98,3.96,4,1.51,8.2-6.17,13.96-8.7,15.85-12.38,9.29-25.52,17.81-39.06,25.35-2.6,5.68-2.31,13.26.83,20.58,3.3,7.68,9.07,14.38,14.65,20.87,1.3,1.52,1.58,3.67.7,5.46-.84,1.72-2.59,2.8-4.49,2.8-.09,0-.17,0-.26,0-19.3-.99-38.58-3.88-57.32-8.59l-.15-.04c-2.61-.66-5.3-1.33-7.63-1.33-1.01,0-1.88.12-2.67.38-2.02.65-3.98,2.36-6.05,4.17-.54.47-1.07.93-1.61,1.39-10.12,8.51-23.65,13.38-37.13,13.39Z"/>
      <path class="cls-1" d="M278.72,44.57c5.19,9.05,11.15,17.66,17.8,25.7,2.52,3.05,5.23,6.09,8.76,7.87,4.24,2.14,9.18,2.25,13.93,2.31,3.09.04,6.19.08,9.29.08,10.75,0,21.5-.46,31.93-2.91.75,8.41-.17,16.96-2.7,25.01-1.8,5.73-4.43,11.52-3.6,17.46.46,3.3,1.98,6.37,3.74,9.21,7.98,12.88,21.47,22.21,36.34,25.12.82,4.46-3.15,8.22-6.78,10.94-12.65,9.49-25.97,18.09-39.82,25.72-4.4,7.9-3.57,17.88,0,26.19s9.56,15.31,15.46,22.16c-19-.98-37.9-3.81-56.35-8.45-2.94-.74-6.01-1.52-9-1.52-1.42,0-2.83.18-4.2.62-3.63,1.17-6.42,4.03-9.34,6.49-9.39,7.9-21.66,12.21-33.91,12.21-3.38,0-6.77-.33-10.09-1-.64-10.63-1.29-21.26-1.93-31.89-.06-1-.15-2.07-.8-2.84-.86-1.01-2.36-1.1-3.69-1.1h-.07c-12.56.03-25.12.06-37.67.09h-.14c-1.51,0-3.14-.07-4.27-1.06-2.56-2.22-.39-6.35,1.87-8.87,7.81-8.71,16.16-16.94,24.97-24.63-10.42-7.39-20.84-14.77-31.26-22.16-5.5-3.9-11.13-7.93-14.89-13.53-3.2-4.76-4.51-11.95-.18-15.71,2.08-1.81,4.96-2.34,7.7-2.53,1.21-.08,2.43-.12,3.64-.12,3.44,0,6.9.25,10.34.25,1.25,0,2.5-.03,3.75-.12,5.9-.43,12.1-2.42,15.61-7.18,5.19-7.03,2.65-16.88-.1-25.17-2.39-7.23-7.18-21.68-7.18-21.68,0,0,15.09,7.13,17.99,8.36,6.5,2.76,13.1,5.29,19.75,7.63,1.9.67,3.73.97,5.48.97,8.52,0,15.33-7.18,19.94-14.94,4.9-8.24,7.32-17.68,9.67-26.97M278.73,34.57c-.45,0-.9.03-1.36.09-4.04.55-7.33,3.5-8.34,7.45-2.15,8.48-4.38,17.26-8.57,24.31-3.75,6.3-7.99,10.06-11.35,10.06-.68,0-1.38-.13-2.16-.41-6.74-2.38-13.19-4.87-19.17-7.4-1.99-.85-11.63-5.37-17.63-8.2-1.36-.64-2.82-.96-4.27-.96-2.4,0-4.76.86-6.63,2.51-3,2.65-4.12,6.83-2.86,10.63l7.18,21.68c1.24,3.76,4.16,12.55,1.55,16.09-1.22,1.66-4.4,2.86-8.29,3.14-.91.07-1.89.1-3.03.1-1.54,0-3.13-.06-4.81-.12-1.78-.06-3.63-.13-5.54-.13-1.57,0-2.98.05-4.34.14-3.67.26-9.07,1.05-13.57,4.96-8.68,7.54-7.35,20.21-1.56,28.84,4.83,7.19,11.51,11.93,17.41,16.11l21.13,14.98c-5.73,5.44-11.25,11.12-16.5,16.97-2.24,2.5-5.94,7.61-5.56,13.82.23,3.62,1.85,6.92,4.57,9.28,4.04,3.51,8.8,3.51,10.83,3.51h.16l32.56-.08,1.03,16.99.57,9.44c.27,4.52,3.55,8.29,7.99,9.2,3.93.8,8,1.2,12.08,1.2,14.85,0,29.18-5.17,40.35-14.56.56-.47,1.12-.96,1.68-1.45,1.53-1.33,3.26-2.84,4.3-3.18.28-.09.66-.14,1.13-.14,1.71,0,4.1.6,6.41,1.18l.15.04c19.05,4.79,38.66,7.73,58.28,8.74.17,0,.34.01.51.01,3.8,0,7.29-2.16,8.98-5.6,1.76-3.59,1.21-7.89-1.4-10.92-5.34-6.2-10.85-12.61-13.85-19.58-2.33-5.42-2.81-10.87-1.43-15.11,13.18-7.43,25.98-15.78,38.07-24.84,8.42-6.31,11.99-13.29,10.61-20.75-.74-4.04-3.88-7.21-7.91-8-12.13-2.38-23.25-10.07-29.76-20.57-.88-1.43-2.09-3.53-2.34-5.33-.35-2.47.84-5.94,2.09-9.61.38-1.12.78-2.28,1.15-3.47,2.9-9.25,3.98-19.24,3.12-28.9-.26-2.89-1.76-5.52-4.11-7.22-1.72-1.24-3.77-1.89-5.85-1.89-.77,0-1.53.09-2.29.27-9.9,2.33-20.54,2.65-29.64,2.65-3.11,0-6.33-.04-9.17-.08-3.42-.04-7.29-.09-9.54-1.23-1.85-.94-3.85-3.24-5.57-5.32-6.27-7.58-11.93-15.76-16.83-24.3-1.8-3.14-5.13-5.03-8.67-5.03h0Z"/>
    </g>
    <g id="stem-circle">
      <path class="cls-4" d="M285.68,206.04c-29.47,0-53.44-23.97-53.44-53.44s23.97-53.44,53.44-53.44,53.44,23.97,53.44,53.44-23.97,53.44-53.44,53.44Z"/>
      <path class="cls-2" d="M285.68,104.16c26.71,0,48.44,21.73,48.44,48.44s-21.73,48.44-48.44,48.44-48.44-21.73-48.44-48.44,21.73-48.44,48.44-48.44M285.68,94.16c-32.28,0-58.44,26.16-58.44,58.44s26.16,58.44,58.44,58.44,58.44-26.16,58.44-58.44-26.16-58.44-58.44-58.44h0Z"/>
    </g>
  </g>
</svg>