<svg width="54" height="54" viewBox="0 0 54 54" fill="none" xmlns="http://www.w3.org/2000/svg">
<path d="M4.72582 41.0983C0.912711 41.7875 -1.55461 37.1947 1.12517 34.3958L9.22841 25.9325C10.4268 24.6808 10.683 22.7998 9.86291 21.2732L4.31785 10.9513C2.48408 7.53774 6.0897 3.77191 9.57966 5.45563L20.1328 10.547C21.6936 11.2999 23.5617 10.9623 24.7601 9.71061L32.8634 1.24729C35.5431 -1.55157 40.2388 0.713876 39.716 4.55333L38.1349 16.1633C37.9011 17.8803 38.7995 19.5527 40.3603 20.3057L50.9134 25.397C54.4034 27.0807 53.6999 32.2467 49.8868 32.9358L38.3565 35.0199C36.6512 35.3281 35.3383 36.6993 35.1045 38.4163L33.5235 50.0263C33.0006 53.8657 27.8701 54.793 26.0363 51.3795L20.4913 41.0576C19.6712 39.531 17.9614 38.7061 16.2561 39.0143L4.72582 41.0983Z" fill="#32327B"/>
</svg>
