<svg width="1200" height="571" viewBox="0 0 1200 571" fill="none" xmlns="http://www.w3.org/2000/svg">
<ellipse cx="133.981" cy="498.749" rx="17.4757" ry="14.9032" fill="#32327B"/>
<ellipse cx="198.058" cy="521.105" rx="26.2136" ry="22.3548" fill="#32327B"/>
<ellipse cx="881.068" cy="482.604" rx="45.1456" ry="38.5" fill="#32327B"/>
<ellipse cx="942.233" cy="534.765" rx="16.0194" ry="13.6613" fill="#32327B"/>
<ellipse cx="901.456" cy="564.571" rx="7.28155" ry="6.20968" fill="#32327B"/>
<path d="M1200 488.813C1200 488.813 978.5 457.057 891.262 462.12C804.024 467.183 637.204 532.529 543.204 534.661C449.204 536.793 362.602 481.8 234.5 474.539C106.398 467.278 0 488.813 0 488.813V188H1200V488.813Z" fill="#32327B"/>
<ellipse cx="1066.02" cy="72.0323" rx="17.4757" ry="14.9032" transform="rotate(-180 1066.02 72.0323)" fill="#32327B"/>
<ellipse cx="1001.94" cy="49.6764" rx="26.2136" ry="22.3548" transform="rotate(-180 1001.94 49.6764)" fill="#32327B"/>
<ellipse cx="318.932" cy="88.1777" rx="45.1456" ry="38.5" transform="rotate(-180 318.932 88.1777)" fill="#32327B"/>
<ellipse cx="257.767" cy="36.0164" rx="16.0194" ry="13.6613" transform="rotate(-180 257.767 36.0164)" fill="#32327B"/>
<ellipse cx="298.544" cy="6.21025" rx="7.28155" ry="6.20968" transform="rotate(-180 298.544 6.21025)" fill="#32327B"/>
<path d="M3.08373e-05 81.9677C3.08373e-05 81.9677 221.5 113.724 308.738 108.661C395.976 103.598 562.796 38.2512 656.796 36.1191C750.796 33.9871 837.398 88.98 965.5 96.2412C1093.55 103.499 1199.91 81.9864 1200 81.9678L1200 382.781L0 382.781L3.08373e-05 81.9677Z" fill="#32327B"/>
</svg>
