<svg width="78" height="78" viewBox="0 0 78 78" fill="none" xmlns="http://www.w3.org/2000/svg">
<g clip-path="url(#clip0_2945_2940)">
<path d="M60.3872 0H17.6128C7.8855 0 0 7.92202 0 17.6943V60.3057C0 70.078 7.8855 78 17.6128 78H60.3872C70.1145 78 78 70.078 78 60.3057V17.6943C78 7.92202 70.1145 0 60.3872 0Z" fill="#0866FF"/>
<path fill-rule="evenodd" clip-rule="evenodd" d="M43.7247 78.0007H29.5784V50.9363H21.5361V38.9634H29.5784V33.8043C29.5784 20.4685 35.5856 14.2871 48.6178 14.2871C51.0884 14.2871 55.3519 14.774 57.0959 15.2607V26.1141C56.1753 26.0168 54.5768 25.9683 52.5902 25.9683C46.1954 25.9683 43.7247 28.4018 43.7247 34.729V38.9634H56.4634L54.275 50.9363H43.7247V78.0007Z" fill="white"/>
</g>
<defs>
<clipPath id="clip0_2945_2940">
<rect width="78" height="78" fill="white"/>
</clipPath>
</defs>
</svg>
