<svg width="768" height="1068" viewBox="0 0 768 1068" fill="none" xmlns="http://www.w3.org/2000/svg">
<rect x="-1" y="367.865" width="770" height="327.552" fill="#F47A20"/>
<circle cx="11.2136" cy="11.2136" r="11.2136" transform="matrix(1 0 0 -1 73.7578 65.4121)" fill="#F47A20"/>
<circle cx="16.8204" cy="16.8204" r="16.8204" transform="matrix(1 0 0 -1 109.268 54.1973)" fill="#F47A20"/>
<circle cx="28.9684" cy="28.9684" r="28.9684" transform="matrix(1 0 0 -1 535.383 95.3145)" fill="#F47A20"/>
<circle cx="10.2791" cy="10.2791" r="10.2791" transform="matrix(1 0 0 -1 593.32 37.377)" fill="#F47A20"/>
<circle cx="4.67233" cy="4.67233" r="4.67233" transform="matrix(1 0 0 -1 572.762 9.34375)" fill="#F47A20"/>
<path d="M769 61.6729C769 61.6729 626.872 85.5672 570.894 81.7578C514.916 77.9483 407.872 28.7799 347.556 27.1758C287.239 25.5717 231.669 66.9496 149.471 72.4131C67.272 77.8766 -1 61.6729 -1 61.6729V385.547H769V61.6729Z" fill="#F47A20"/>
<circle cx="11.2136" cy="11.2136" r="11.2136" transform="matrix(-1 0 0 1 694.242 1002.45)" fill="#F47A20"/>
<circle cx="16.8204" cy="16.8204" r="16.8204" transform="matrix(-1 0 0 1 658.732 1013.66)" fill="#F47A20"/>
<circle cx="28.9684" cy="28.9684" r="28.9684" transform="matrix(-1 0 0 1 232.617 972.547)" fill="#F47A20"/>
<circle cx="10.2791" cy="10.2791" r="10.2791" transform="matrix(-1 0 0 1 174.68 1030.48)" fill="#F47A20"/>
<circle cx="4.67233" cy="4.67233" r="4.67233" transform="matrix(-1 0 0 1 195.238 1058.52)" fill="#F47A20"/>
<path d="M-1 1006.19C-1 1006.19 141.128 982.293 197.106 986.103C253.084 989.912 360.128 1039.08 420.444 1040.68C480.761 1042.29 536.331 1000.91 618.529 995.447C700.728 989.984 769 1006.19 769 1006.19V682.314H-1V1006.19Z" fill="#F47A20"/>
</svg>
