<svg width="1200" height="1022" viewBox="0 0 1200 1022" fill="none" xmlns="http://www.w3.org/2000/svg">
<rect y="412" width="1200" height="450" fill="#3B62AE"/>
<ellipse cx="1066.02" cy="81.6857" rx="17.4757" ry="16.9003" transform="rotate(-180 1066.02 81.6857)" fill="#3B62AE"/>
<ellipse cx="1001.94" cy="56.3352" rx="26.2136" ry="25.3504" transform="rotate(-180 1001.94 56.3352)" fill="#3B62AE"/>
<ellipse cx="318.932" cy="99.9933" rx="45.1456" ry="43.659" transform="rotate(-180 318.932 99.9933)" fill="#3B62AE"/>
<ellipse cx="257.767" cy="40.8421" rx="16.0194" ry="15.4919" transform="rotate(-180 257.767 40.8421)" fill="#3B62AE"/>
<ellipse cx="298.544" cy="7.04221" rx="7.28155" ry="7.04177" transform="rotate(-180 298.544 7.04221)" fill="#3B62AE"/>
<path d="M2.62979e-05 92.952C2.62979e-05 92.952 221.5 128.964 308.738 123.223C395.976 117.481 562.796 43.3787 656.796 40.9609C750.796 38.5432 837.398 100.904 965.5 109.139C1093.6 117.373 1200 92.9521 1200 92.9521L1200 434.074L0 434.074L2.62979e-05 92.952Z" fill="#3B62AE"/>
<path d="M0 718.855C0 718.855 135.693 787.614 230.097 796.04C359.238 807.566 412.296 718.856 553 718.856C693.704 718.855 817.524 775.216 891.262 777.108C965 779 1200 718.855 1200 718.855V1933.42H853.398H565.049H297.087H0V718.855Z" fill="#32327B"/>
<circle cx="414.802" cy="720.905" r="36.5897" transform="rotate(164.905 414.802 720.905)" fill="#32327B"/>
<circle cx="345.852" cy="667.293" r="16.0194" transform="rotate(164.905 345.852 667.293)" fill="#32327B"/>
<circle cx="376.12" cy="622.927" r="7.28155" transform="rotate(164.905 376.12 622.927)" fill="#32327B"/>
<circle cx="815.534" cy="718.855" r="20.3883" fill="#32327B"/>
<circle cx="11.6505" cy="11.6505" r="11.6505" transform="matrix(-1 0 0 1 981.553 718.854)" fill="#32327B"/>
<circle cx="4.36893" cy="4.36893" r="4.36893" transform="matrix(-1 0 0 1 1001.94 710.117)" fill="#32327B"/>
<circle cx="2.91262" cy="2.91262" r="2.91262" transform="matrix(-1 0 0 1 981.553 678.078)" fill="#32327B"/>
<circle cx="106.311" cy="731.962" r="10.1942" fill="#32327B"/>
<circle cx="128.155" cy="742.157" r="2.91262" fill="#32327B"/>
</svg>
