<svg width="412" height="801" viewBox="0 0 412 801" fill="none" xmlns="http://www.w3.org/2000/svg">
<circle cx="47" cy="771.549" r="6" fill="#32327B"/>
<circle cx="69" cy="780.549" r="9" fill="#32327B"/>
<circle cx="302.5" cy="765.049" r="15.5" fill="#32327B"/>
<circle cx="323.5" cy="786.049" r="5.5" fill="#32327B"/>
<circle cx="309.5" cy="798.049" r="2.5" fill="#32327B"/>
<circle cx="142.416" cy="36.705" r="12.5625" transform="rotate(164.905 142.416 36.705)" fill="#32327B"/>
<circle cx="118.742" cy="18.2959" r="5.5" transform="rotate(164.905 118.742 18.2959)" fill="#32327B"/>
<circle cx="129.134" cy="3.06544" r="2.5" transform="rotate(164.905 129.134 3.06544)" fill="#32327B"/>
<circle cx="280" cy="36" r="7" fill="#32327B"/>
<circle cx="4" cy="4" r="4" transform="matrix(-1 0 0 1 337 36)" fill="#32327B"/>
<circle cx="1.5" cy="1.5" r="1.5" transform="matrix(-1 0 0 1 344 33)" fill="#32327B"/>
<circle cx="1" cy="1" r="1" transform="matrix(-1 0 0 1 337 22)" fill="#32327B"/>
<circle cx="36.5" cy="40.5" r="3.5" fill="#32327B"/>
<circle cx="44" cy="44" r="1" fill="#32327B"/>
<path d="M0 674L412 680.236V766.356L333.357 761.895C315.281 760.869 297.174 763.262 279.985 768.947L245.658 780.299C212.067 791.409 175.561 789.763 143.106 775.676L126.463 768.452C100.716 757.276 72.2655 753.869 44.6082 758.648L0 766.356V674Z" fill="#32327B"/>
<path d="M0 127.447V40.1567L38.0312 49.7458C64.7799 56.4901 92.903 55.4094 119.055 46.6321L145.825 37.6475C172.365 28.74 200.926 27.7618 228.014 34.8326L278.03 47.8887C296.493 52.708 315.729 53.8101 334.621 51.1308L412 40.1567V133.683L0 127.447Z" fill="#32327B"/>
<rect y="103" width="412" height="587" fill="#32327B"/>
</svg>
