<svg width="412" height="616" viewBox="0 0 412 616" fill="none" xmlns="http://www.w3.org/2000/svg">
<circle cx="47" cy="586.547" r="6" fill="#32327B"/>
<circle cx="69" cy="595.547" r="9" fill="#32327B"/>
<circle cx="302.5" cy="580.047" r="15.5" fill="#32327B"/>
<circle cx="323.5" cy="601.047" r="5.5" fill="#32327B"/>
<circle cx="309.5" cy="613.047" r="2.5" fill="#32327B"/>
<circle cx="142.416" cy="36.705" r="12.5625" transform="rotate(164.905 142.416 36.705)" fill="#32327B"/>
<circle cx="118.742" cy="18.2959" r="5.5" transform="rotate(164.905 118.742 18.2959)" fill="#32327B"/>
<circle cx="129.134" cy="3.06544" r="2.5" transform="rotate(164.905 129.134 3.06544)" fill="#32327B"/>
<circle cx="280" cy="36" r="7" fill="#32327B"/>
<circle cx="4" cy="4" r="4" transform="matrix(-1 0 0 1 337 36)" fill="#32327B"/>
<circle cx="1.5" cy="1.5" r="1.5" transform="matrix(-1 0 0 1 344 33)" fill="#32327B"/>
<circle cx="1" cy="1" r="1" transform="matrix(-1 0 0 1 337 22)" fill="#32327B"/>
<circle cx="36.5" cy="40.5" r="3.5" fill="#32327B"/>
<circle cx="44" cy="44" r="1" fill="#32327B"/>
<path d="M0 489L412 495.236V581.356L333.357 576.895C315.281 575.869 297.174 578.262 279.985 583.947L245.658 595.299C212.067 606.409 175.561 604.763 143.106 590.676L126.463 583.452C100.716 572.276 72.2655 568.869 44.6082 573.648L0 581.356V489Z" fill="#32327B"/>
<path d="M0 127.447V40.1567L38.0312 49.7458C64.7799 56.4901 92.903 55.4094 119.055 46.6321L145.825 37.6475C172.365 28.74 200.926 27.7618 228.014 34.8326L278.03 47.8887C296.493 52.708 315.729 53.8101 334.621 51.1308L412 40.1567V133.683L0 127.447Z" fill="#32327B"/>
<rect y="103.002" width="412" height="395" fill="#32327B"/>
</svg>
