<svg width="1200" height="998" viewBox="0 0 1200 998" fill="none" xmlns="http://www.w3.org/2000/svg">
<rect y="413.002" width="1200" height="169" fill="#32327B"/>
<ellipse cx="133.981" cy="919.321" rx="17.4757" ry="16.2254" fill="#32327B"/>
<ellipse cx="198.058" cy="943.658" rx="26.2136" ry="24.3381" fill="#32327B"/>
<ellipse cx="881.068" cy="901.744" rx="45.1456" ry="41.9155" fill="#32327B"/>
<ellipse cx="942.233" cy="958.531" rx="16.0194" ry="14.8733" fill="#32327B"/>
<ellipse cx="901.456" cy="990.983" rx="7.28155" ry="6.76057" fill="#32327B"/>
<path d="M1200 908.504C1199.92 908.492 978.484 873.931 891.262 879.442C804.024 884.955 637.204 956.099 543.204 958.42C449.204 960.741 362.602 900.869 234.5 892.964C106.437 885.061 0.0640319 908.49 0 908.504V581.004H1200V908.504Z" fill="#32327B"/>
<ellipse cx="1066.02" cy="78.4231" rx="17.4757" ry="16.2254" transform="rotate(-180 1066.02 78.4231)" fill="#32327B"/>
<ellipse cx="1001.94" cy="54.0858" rx="26.2136" ry="24.3381" transform="rotate(-180 1001.94 54.0858)" fill="#32327B"/>
<ellipse cx="318.932" cy="96.0005" rx="45.1456" ry="41.9155" transform="rotate(-180 318.932 96.0005)" fill="#32327B"/>
<ellipse cx="257.767" cy="39.2127" rx="16.0194" ry="14.8733" transform="rotate(-180 257.767 39.2127)" fill="#32327B"/>
<ellipse cx="298.544" cy="6.76091" rx="7.28155" ry="6.76057" transform="rotate(-180 298.544 6.76091)" fill="#32327B"/>
<path d="M3.08374e-05 89.2392C3.08374e-05 89.2392 221.5 123.813 308.738 118.301C395.976 112.788 562.796 41.6444 656.796 39.3232C750.796 37.0021 837.398 96.8739 965.5 104.779C1093.54 112.681 1199.9 89.2621 1200 89.2393L1200 416.74L0 416.74L3.08374e-05 89.2392Z" fill="#32327B"/>
</svg>
