<svg width="412" height="771" viewBox="0 0 412 771" fill="none" xmlns="http://www.w3.org/2000/svg">
<circle cx="366" cy="29" r="6" transform="rotate(180 366 29)" fill="#ED1761"/>
<circle cx="344" cy="20" r="9" transform="rotate(180 344 20)" fill="#ED1761"/>
<circle cx="109.5" cy="35.5" r="15.5" transform="rotate(180 109.5 35.5)" fill="#ED1761"/>
<circle cx="88.5" cy="14.5" r="5.5" transform="rotate(180 88.5 14.5)" fill="#ED1761"/>
<circle cx="102.5" cy="2.5" r="2.5" transform="rotate(180 102.5 2.5)" fill="#ED1761"/>
<path d="M0 33C0.0745035 33.0125 76.063 45.7834 106 43.7461C135.952 41.7078 193.227 15.3993 225.5 14.541C257.773 13.6827 287.507 35.8227 331.488 38.7461C375.434 41.667 411.94 33.0143 412 33V206.293H0V33Z" fill="#ED1761"/>
<circle cx="46" cy="741.293" r="6" fill="#ED1761"/>
<circle cx="68" cy="750.293" r="9" fill="#ED1761"/>
<circle cx="302.5" cy="734.793" r="15.5" fill="#ED1761"/>
<circle cx="323.5" cy="755.793" r="5.5" fill="#ED1761"/>
<circle cx="309.5" cy="767.793" r="2.5" fill="#ED1761"/>
<path d="M412 737.293C411.935 737.282 335.939 724.509 306 726.547C276.048 728.585 218.773 754.894 186.5 755.752C154.227 756.61 124.493 734.47 80.5117 731.547C36.5614 728.626 0.0521002 737.281 0 737.293V564H412V737.293Z" fill="#ED1761"/>
<rect y="190" width="412" height="383" fill="#ED1761"/>
</svg>
