<svg width="768" height="836" viewBox="0 0 768 836" fill="none" xmlns="http://www.w3.org/2000/svg">
<circle cx="682.252" cy="54.0597" r="11.1845" transform="rotate(180 682.252 54.0597)" fill="#ED1761"/>
<circle cx="641.243" cy="37.2819" r="16.7767" transform="rotate(180 641.243 37.2819)" fill="#ED1761"/>
<circle cx="204.117" cy="66.1752" r="28.8932" transform="rotate(180 204.117 66.1752)" fill="#ED1761"/>
<circle cx="164.97" cy="27.0288" r="10.2524" transform="rotate(180 164.97 27.0288)" fill="#ED1761"/>
<circle cx="191.068" cy="4.66012" r="4.66019" transform="rotate(180 191.068 4.66012)" fill="#ED1761"/>
<path d="M0 61.5146C0 61.5146 141.759 85.3473 197.592 81.5479C253.424 77.7482 360.19 28.7074 420.35 27.1074C480.51 25.5075 535.935 66.7772 617.92 72.2266C699.905 77.6759 768 61.5146 768 61.5146V384.547H0V61.5146Z" fill="#ED1761"/>
<circle cx="85.7479" cy="781.489" r="11.1845" fill="#ED1761"/>
<circle cx="126.757" cy="798.265" r="16.7767" fill="#ED1761"/>
<circle cx="563.883" cy="769.372" r="28.8932" fill="#ED1761"/>
<circle cx="603.03" cy="808.518" r="10.2524" fill="#ED1761"/>
<circle cx="576.932" cy="830.887" r="4.66019" fill="#ED1761"/>
<path d="M768 774.032C767.981 774.029 626.237 750.201 570.408 754C514.576 757.8 407.81 806.84 347.65 808.44C287.49 810.04 232.065 768.77 150.08 763.32C68.1238 757.873 0.0481241 774.021 0 774.032V451H768V774.032Z" fill="#ED1761"/>
<rect y="379" width="768" height="89" fill="#ED1761"/>
</svg>
