<svg width="78" height="78" viewBox="0 0 78 78" fill="none" xmlns="http://www.w3.org/2000/svg">
<g clip-path="url(#clip0_2945_2943)">
<path d="M39.0185 0.591797C22.9805 0.591797 18.29 0.608342 17.3783 0.683979C14.087 0.95757 12.039 1.4758 9.8078 2.58671C8.08831 3.44057 6.73222 4.43034 5.39385 5.8178C2.95642 8.34807 1.47919 11.461 0.944436 15.1613C0.684444 16.9576 0.60881 17.324 0.593446 26.4996C0.587538 29.5582 0.593446 33.5834 0.593446 38.9826C0.593446 55.008 0.611173 59.6939 0.687989 60.6039C0.95389 63.8067 1.45615 65.8217 2.51975 68.0257C4.55242 72.2448 8.43457 75.4121 13.0081 76.5939C14.5917 77.0017 16.3407 77.2262 18.5861 77.3326C19.5374 77.3739 29.2339 77.4035 38.9364 77.4035C48.6388 77.4035 58.3412 77.3917 59.2689 77.3444C61.8689 77.2221 63.3786 77.0194 65.0479 76.588C69.6509 75.4003 73.4621 72.2803 75.5362 68.0021C76.5791 65.8512 77.1079 63.7594 77.3473 60.7239C77.3993 60.0621 77.4211 49.5102 77.4211 38.9725C77.4211 28.4331 77.3975 17.9007 77.3455 17.2389C77.1032 14.1543 76.5744 12.0803 75.4978 9.88798C74.6144 8.09339 73.6335 6.75321 72.2094 5.38289C69.668 2.95543 66.5599 1.47816 62.8562 0.943979C61.0617 0.68457 60.7042 0.607751 51.5218 0.591797H39.0185Z" fill="url(#paint0_radial_2945_2943)"/>
<path d="M39.0185 0.591797C22.9805 0.591797 18.29 0.608342 17.3783 0.683979C14.087 0.95757 12.039 1.4758 9.8078 2.58671C8.08831 3.44057 6.73222 4.43034 5.39385 5.8178C2.95642 8.34807 1.47919 11.461 0.944436 15.1613C0.684444 16.9576 0.60881 17.324 0.593446 26.4996C0.587538 29.5582 0.593446 33.5834 0.593446 38.9826C0.593446 55.008 0.611173 59.6939 0.687989 60.6039C0.95389 63.8067 1.45615 65.8217 2.51975 68.0257C4.55242 72.2448 8.43457 75.4121 13.0081 76.5939C14.5917 77.0017 16.3407 77.2262 18.5861 77.3326C19.5374 77.3739 29.2339 77.4035 38.9364 77.4035C48.6388 77.4035 58.3412 77.3917 59.2689 77.3444C61.8689 77.2221 63.3786 77.0194 65.0479 76.588C69.6509 75.4003 73.4621 72.2803 75.5362 68.0021C76.5791 65.8512 77.1079 63.7594 77.3473 60.7239C77.3993 60.0621 77.4211 49.5102 77.4211 38.9725C77.4211 28.4331 77.3975 17.9007 77.3455 17.2389C77.1032 14.1543 76.5744 12.0803 75.4978 9.88798C74.6144 8.09339 73.6335 6.75321 72.2094 5.38289C69.668 2.95543 66.5599 1.47816 62.8562 0.943979C61.0617 0.68457 60.7042 0.607751 51.5218 0.591797H39.0185Z" fill="url(#paint1_radial_2945_2943)"/>
<path d="M39.0009 10.6367C31.298 10.6367 30.3313 10.6704 27.306 10.8081C24.2865 10.9464 22.2255 11.4244 20.4221 12.1258C18.5566 12.8503 16.9742 13.8194 15.3977 15.3965C13.8201 16.973 12.851 18.5555 12.1242 20.4204C11.421 22.2244 10.9424 24.2861 10.8065 27.3045C10.6712 30.3299 10.6357 31.2973 10.6357 39.0004C10.6357 46.7034 10.67 47.6672 10.8071 50.6927C10.946 53.7122 11.424 55.7733 12.1248 57.5768C12.8498 59.4423 13.8189 61.0247 15.396 62.6013C16.9719 64.179 18.5543 65.1504 20.4185 65.8749C22.2231 66.5763 24.2847 67.0544 27.3036 67.1926C30.329 67.3303 31.2951 67.364 38.9973 67.364C46.7008 67.364 47.6645 67.3303 50.6899 67.1926C53.7093 67.0544 55.7727 66.5763 57.5773 65.8749C59.4422 65.1504 61.0222 64.179 62.5981 62.6013C64.1758 61.0247 65.1449 59.4423 65.8717 57.5774C66.5689 55.7733 67.0475 53.7116 67.1893 50.6933C67.3253 47.6678 67.3607 46.7034 67.3607 39.0004C67.3607 31.2973 67.3253 30.3305 67.1893 27.3051C67.0475 24.2855 66.5689 22.2244 65.8717 20.421C65.1449 18.5555 64.1758 16.973 62.5981 15.3965C61.0204 13.8188 59.4428 12.8497 57.5756 12.1258C55.7674 11.4244 53.7052 10.9464 50.6858 10.8081C47.6604 10.6704 46.6972 10.6367 38.992 10.6367H39.0009ZM36.4565 15.7481C37.2117 15.7469 38.0543 15.7481 39.0009 15.7481C46.5737 15.7481 47.4713 15.7753 50.4618 15.9112C53.2272 16.0376 54.728 16.4997 55.7278 16.8879C57.0514 17.402 57.9951 18.0166 58.9872 19.0093C59.9799 20.002 60.5944 20.9475 61.1097 22.2711C61.4979 23.2698 61.9605 24.7707 62.0864 27.5361C62.2223 30.5261 62.2519 31.4243 62.2519 38.9939C62.2519 46.5634 62.2223 47.4616 62.0864 50.4516C61.96 53.217 61.4979 54.7179 61.1097 55.7166C60.5956 57.0402 59.9799 57.9827 58.9872 58.9749C57.9945 59.9676 57.052 60.5821 55.7278 61.0962C54.7292 61.4862 53.2272 61.9471 50.4618 62.0736C47.4719 62.2095 46.5737 62.239 39.0009 62.239C31.4274 62.239 30.5299 62.2095 27.54 62.0736C24.7746 61.9459 23.2737 61.4839 22.2733 61.0956C20.9497 60.5815 20.0043 59.967 19.0116 58.9743C18.0189 57.9815 17.4044 57.0384 16.8891 55.7142C16.5009 54.7156 16.0383 53.2147 15.9124 50.4492C15.7765 47.4592 15.7493 46.561 15.7493 38.9868C15.7493 31.4125 15.7765 30.519 15.9124 27.529C16.0389 24.7636 16.5009 23.2627 16.8891 22.2629C17.4032 20.9392 18.0189 19.9938 19.0116 19.001C20.0043 18.0083 20.9497 17.3938 22.2733 16.8785C23.2731 16.4885 24.7746 16.0276 27.54 15.9005C30.1564 15.7824 31.1704 15.7469 36.4565 15.741V15.7481ZM54.1407 20.4576C52.2617 20.4576 50.7372 21.9804 50.7372 23.8601C50.7372 25.7392 52.2617 27.2637 54.1407 27.2637C56.0197 27.2637 57.5442 25.7392 57.5442 23.8601C57.5442 21.981 56.0197 20.4564 54.1407 20.4564V20.4576ZM39.0009 24.4344C30.9571 24.4344 24.4354 30.9563 24.4354 39.0004C24.4354 47.0444 30.9571 53.5633 39.0009 53.5633C47.0447 53.5633 53.564 47.0444 53.564 39.0004C53.564 30.9563 47.0447 24.4344 39.0009 24.4344ZM39.0009 29.5458C44.222 29.5458 48.4551 33.7785 48.4551 39.0004C48.4551 44.2216 44.222 48.4549 39.0009 48.4549C33.7792 48.4549 29.5466 44.2216 29.5466 39.0004C29.5466 33.7785 33.7792 29.5458 39.0009 29.5458Z" fill="white"/>
</g>
<defs>
<radialGradient id="paint0_radial_2945_2943" cx="0" cy="0" r="1" gradientUnits="userSpaceOnUse" gradientTransform="translate(20.999 83.3196) rotate(-90) scale(76.126 70.8204)">
<stop stop-color="#FFDD55"/>
<stop offset="0.1" stop-color="#FFDD55"/>
<stop offset="0.5" stop-color="#FF543E"/>
<stop offset="1" stop-color="#C837AB"/>
</radialGradient>
<radialGradient id="paint1_radial_2945_2943" cx="0" cy="0" r="1" gradientTransform="matrix(6.68067 33.3667 -137.57 27.5462 -12.2787 6.12518)" gradientUnits="userSpaceOnUse">
<stop stop-color="#3771C8"/>
<stop offset="0.128" stop-color="#3771C8"/>
<stop offset="1" stop-color="#6600FF" stop-opacity="0"/>
</radialGradient>
<clipPath id="clip0_2945_2943">
<rect width="78" height="78" fill="white"/>
</clipPath>
</defs>
</svg>
