<?xml version="1.0" encoding="UTF-8"?>
<svg id="Layer_2" data-name="Layer 2" xmlns="http://www.w3.org/2000/svg" viewBox="0 0 436.95 436.95">
  <defs>
    <style>
      .cls-1 {
        fill: #ecdd80;
        stroke: #eab81f;
      }

      .cls-1, .cls-2 {
        stroke-linejoin: round;
        stroke-width: 10px;
      }

      .cls-2 {
        fill: #f1e902;
        stroke: #ebc11d;
        stroke-linecap: round;
      }
    </style>
  </defs>
  <g id="box">
    <path id="orange-peel" class="cls-2" d="M81.53,355.42c91.53,91.53,233.93,100.99,335.33,28.19,18.17-13.04,20.29-39.3,4.41-55.18L108.52,15.68C92.64-.2,66.38,1.92,53.34,20.09-19.46,121.49-10,263.89,81.53,355.42Z"/>
    <g id="orange-slices">
      <path id="slice4" class="cls-1" d="M264.09,393.09l-3.19-154.1c-.28-13.49,15.9-20.59,25.64-11.25l111.21,106.7c6.4,6.14,6.16,16.41-.46,22.31-31.56,28.07-71.84,46.64-116.4,51.09-8.85.88-16.62-5.86-16.8-14.75Z"/>
      <path id="slice3" class="cls-1" d="M247.45,385.73v-154.27c0-13.51-16.33-20.27-25.89-10.72l-109.07,109.07c-6.27,6.27-5.83,16.55.92,22.31,32.16,27.44,72.85,45.18,117.53,48.72,8.88.7,16.51-6.21,16.51-15.11Z"/>
      <path id="slice2" class="cls-1" d="M44.75,183h154.14c13.5,0,20.26,16.32,10.71,25.86l-108.98,108.98c-6.27,6.27-16.54,5.82-22.29-.92-27.41-32.14-45.15-72.79-48.67-117.43-.7-8.87,6.2-16.49,15.1-16.49Z"/>
      <path id="slice1" class="cls-1" d="M43.48,166.35h152.18c13.33,0,20-16.11,10.58-25.54L98.64,33.21c-6.19-6.19-16.33-5.75-22.01.91-27.07,31.73-44.57,71.86-48.06,115.94-.69,8.76,6.12,16.28,14.91,16.28Z"/>
    </g>
  </g>
</svg>