<?xml version="1.0" encoding="UTF-8"?>
<svg id="Layer_2" data-name="Layer 2" xmlns="http://www.w3.org/2000/svg" viewBox="0 0 337.46 261.29">
  <defs>
    <style>
      .cls-1 {
        fill: #32327b;
      }

      .cls-2 {
        fill: #333;
      }

      .cls-3 {
        fill: #ed1d61;
      }

      .cls-4 {
        fill: #f47a20;
      }

      .cls-5 {
        fill: #fff;
      }

      .cls-6 {
        fill: #ece718;
      }

      .cls-7 {
        fill: #3e62ae;
      }
    </style>
  </defs>
  <g id="export-for-texture">
    <g id="logo">
      <path class="cls-2" d="M194.26,181.36s-.05.05-.06.08c0,0-.02-.02-.02-.03.02-.02.05-.03.08-.05Z"/>
      <path class="cls-7" d="M168.39,261.29c-19.84,0-39.72-4.62-57.52-13.35-14.85-7.29-28.03-17.21-39.2-29.5C8.9,202.92-.2,161.22,0,137.61c.1-12.72,5.67-24.64,15.3-32.68,4.48-3.78,9.79-6.62,15.5-8.32,1.55-3.75,3.23-7.36,5.01-10.75,2.35-4.39,4.49-7.91,6.78-11.12,2.61-3.71,5.47-7.14,8.5-10.16,3.11-3.14,6.35-5.83,9.85-8.18.29-.46.6-.91.91-1.35C86.34,20.58,126.17,0,168.39,0c29.27,0,57.9,9.94,80.82,28.02.48.03.95.08,1.41.12,10.61,1.14,19.55,6.19,26.57,15l.19.24c.62.75,1.59,1.93,2.7,3.48,2.41-.5,4.85-.8,7.29-.9,0,0,1.35-.03,1.59-.03,14.9,0,28.58,7.57,36.58,20.25,20.58,32.61,14.15,71.89-16.39,100.08-6.27,5.79-13.05,10.98-20.68,15.83-12.74,29.79-35.82,53.61-65.1,67.14-17.27,7.99-35.77,12.05-54.97,12.05Z"/>
      <path class="cls-3" d="M168.39,255.82c-19,0-38.06-4.42-55.1-12.79-14.53-7.13-27.39-16.89-38.24-29.01-.14-.16-.29-.33-.43-.49C14.08,199.22,5.29,159.95,5.48,137.66c.08-11.12,4.94-21.52,13.33-28.53,4.6-3.88,10.1-6.59,16.05-7.93.24-.62.48-1.23.73-1.85,1.56-3.83,3.26-7.51,5.06-10.96,2.22-4.14,4.24-7.46,6.39-10.48,2.44-3.46,5.1-6.66,7.91-9.47,3.15-3.17,6.43-5.85,10-8.14.43-.72.88-1.42,1.36-2.09C89.78,25.19,127.94,5.48,168.39,5.48c28.69,0,56.59,9.91,78.78,27.93.94.02,1.93.08,2.85.18,9.11.98,16.8,5.35,22.87,12.97l.22.27c1,1.21,2.77,3.35,4.53,6.31,3.23-.99,6.59-1.57,9.92-1.7.08,0,1.11-.02,1.38-.02,13.01,0,24.95,6.61,31.95,17.69,19.1,30.27,13.03,66.82-15.48,93.13-6.4,5.91-13.4,11.21-21.35,16.14-.05.12-.1.24-.15.36-12.1,29.11-34.43,52.39-62.87,65.53-16.55,7.66-34.27,11.54-52.68,11.54Z"/>
      <path class="cls-4" d="M168.39,250.34c-18.17,0-36.39-4.23-52.69-12.23-13.89-6.82-26.19-16.15-36.57-27.75-.5-.56-.98-1.15-1.43-1.75-58.42-13.06-66.92-49.92-66.74-70.9.07-9.51,4.22-18.39,11.37-24.37,4.67-3.93,10.44-6.46,16.57-7.31.17-.47.34-.94.51-1.4.42-1.13.83-2.17,1.26-3.23,1.48-3.65,3.11-7.17,4.83-10.45,2.09-3.91,3.99-7.03,6-9.85,2.27-3.23,4.74-6.19,7.32-8.77,2.96-2.98,6.02-5.47,9.37-7.58.27-.18.56-.36.86-.54.52-.98,1.09-1.92,1.73-2.81,22.44-31.58,58.93-50.44,97.61-50.44,28.16,0,55.35,9.91,76.84,27.95.42-.02.84-.03,1.26-.03.95,0,2,.06,2.95.16,7.6.82,14.05,4.5,19.17,10.94l.25.3c1.41,1.71,4.15,5.02,6.16,9.72,3.99-1.85,8.35-2.91,12.77-3.08,0,0,.93-.02,1.18-.02,11.12,0,21.33,5.66,27.31,15.14,17.63,27.92,11.91,61.75-14.56,86.19-6.56,6.06-13.81,11.47-22.12,16.5-.21.65-.45,1.29-.71,1.91-11.58,27.85-32.93,50.11-60.12,62.68-15.82,7.32-32.77,11.04-50.38,11.04Z"/>
      <path class="cls-6" d="M168.39,244.86c-17.34,0-34.72-4.04-50.27-11.67-13.25-6.5-25-15.41-34.9-26.48-.83-.93-1.57-1.93-2.22-2.99-56.48-11.81-64.73-46.27-64.56-65.96.06-7.9,3.49-15.27,9.41-20.22,4.72-3.97,10.77-6.22,17.09-6.34.51-1.57,1.05-3.13,1.62-4.67.4-1.07.8-2.07,1.21-3.09,1.42-3.49,2.96-6.83,4.6-9.95,1.96-3.67,3.74-6.59,5.61-9.21,2.1-2.99,4.38-5.72,6.73-8.08,2.67-2.69,5.43-4.93,8.42-6.83.67-.43,1.38-.86,2.13-1.27.55-1.26,1.22-2.45,2-3.54,21.42-30.14,56.24-48.13,93.15-48.13,27.72,0,54.25,9.97,75.03,28.14,1.02-.14,2.05-.21,3.07-.21.74,0,1.6.05,2.36.13,6.09.66,11.3,3.65,15.48,8.9l.26.33c1.89,2.29,6.11,7.38,7.15,14.69,4.58-3.65,10.26-5.78,16.25-6.01.02,0,.7-.02.97-.02,9.23,0,17.71,4.71,22.68,12.59,16.15,25.58,10.79,56.68-13.64,79.24-6.76,6.24-14.33,11.8-23.1,16.94-.26,1.16-.62,2.29-1.07,3.38-11.05,26.58-31.42,47.83-57.36,59.81-15.1,6.99-31.28,10.53-48.08,10.53Z"/>
      <path class="cls-5" d="M307.01,77.88c-3.96-6.28-10.71-10.03-18.05-10.03-.2,0-.71.01-.76.01-6.45.24-12.4,3.25-16.36,8.09-1.72-.63-3.46-1.04-5.21-1.15-.03-1.29-.08-2.67-.15-4.07-.37-6.59-4.22-11.24-6.1-13.51-.06-.07-.12-.14-.18-.21-.05-.07-.11-.14-.16-.21-1.2-1.51-4.87-6.12-11.78-6.87-.57-.06-1.23-.1-1.78-.1-1.58,0-3.14.22-4.67.66-20.09-18.46-45.98-28.59-73.43-28.59-35.14,0-68.29,17.13-88.68,45.83-.94,1.32-1.61,2.76-2.07,4.26-1.25.61-2.45,1.27-3.58,2-2.64,1.67-5.1,3.67-7.48,6.07-2.14,2.14-4.23,4.65-6.15,7.39-1.73,2.43-3.37,5.12-5.22,8.58-1.56,2.96-3.02,6.13-4.37,9.45-.4.98-.77,1.94-1.15,2.96-.84,2.26-1.61,4.55-2.29,6.85-.17.57-.32,1.12-.47,1.68-1.06-.17-2.14-.28-3.25-.29-.05,0-.16,0-.22,0-5.22,0-10.22,1.8-14.1,5.07-4.68,3.91-7.39,9.76-7.44,16.06-.16,18.52,7.94,50.56,62.73,61.06.64,1.51,1.52,2.93,2.66,4.19,9.43,10.54,20.62,19.03,33.23,25.22,14.8,7.27,31.35,11.11,47.86,11.11s31.41-3.38,45.79-10.03c24.69-11.41,44.08-31.63,54.6-56.95.63-1.53,1-3.12,1.12-4.71,9.36-5.3,17.38-11.06,24.39-17.53,22.4-20.67,27.39-49.05,12.72-72.29ZM137.54,158.59l.08.44s-.06,0-.09,0c0-.15,0-.3.01-.44Z"/>
      <g>
        <path class="cls-1" d="M254.72,166.96c-9.22,22.18-26.12,39.36-46.93,48.97-12.06,5.58-25.44,8.63-39.4,8.63s-28.48-3.33-41.15-9.55c-10.73-5.26-20.45-12.6-28.6-21.71,8.12.93,16.86,1.41,25.99,1.41,4.75,0,9.61-.14,14.45-.38,28.65-1.51,56.82-6.62,83.77-15.18,8.03-2.56,19.93-6.56,31.89-12.19Z"/>
        <path class="cls-1" d="M186.37,74.47c.74-3.06,2.78-5.49,5.84-6.89,4.52-2.08,8.04-.97,10.21.32,2.34,1.39,4.26,3.71,6.03,7.29.37.75.78,1.59,1.23,2.53l1.61,3.34.69-.32c2.27-1.06,4.39-1.69,6.3-1.87.95-1.63,2.3-3.12,4.02-4.42,1.42-1.08,3.35-2.54,5.45-4.16,2.16-1.66,4.51-3.5,6.6-5.15l.23-.18c-17.67-17.72-41.14-27.47-66.17-27.47-30.29,0-58.72,14.72-76.28,39.43.35,0,.71,0,1.06,0,2.62.09,5.31.59,8,1.48,2.46.82,4.71,1.9,6.69,3.22,2.11,1.41,3.95,3.11,5.48,5.06,1.55,1.97,2.79,4.23,3.7,6.71.56,1.51,1,3.16,1.32,4.91.74-.16,1.5-.24,2.28-.24.09,0,.18,0,.27,0,3.46.08,6.23,1.16,8.23,3.23,2.31-1.22,4.76-1.8,7.34-1.73.05,0,.1,0,.15,0l-.13-.84c-.43-2.89-.72-5.95-.01-8.81,1.11-4.43,4.4-7.36,9.03-8.03,4.25-.62,8.12.84,10.88,4.12,1.96,2.33,3.24,5.42,3.78,9.19l.2,1.4c1.1-.36,2.26-.65,3.44-.86,2.86-.52,5.64-.53,8.25-.02,1.03.2,2.05.49,3.06.86-.03-.14-.06-.28-.09-.42-3.07-1.25-5.09-4.15-5.16-7.48-.07-3.29,1.79-6.26,4.75-7.66.36-3.09,2.45-5.74,5.41-6.81,2.07-.75,4.33-.65,6.32.25Z"/>
      </g>
      <path class="cls-2" d="M219.98,92.29s-.05.05-.06.08c0,0-.02-.02-.02-.03.02-.02.05-.03.08-.05Z"/>
      <g>
        <path class="cls-1" d="M111.68,103.36v-.02c-.02-.44-.05-.88-.09-1.29-.23-2.27-.67-4.32-1.34-6.15-.65-1.78-1.54-3.38-2.6-4.75-1.05-1.32-2.33-2.51-3.82-3.51-1.43-.96-3.1-1.75-4.96-2.36-2.01-.68-4.02-1.06-5.95-1.14h-.56c-1.7,0-3.36.23-4.97.7l-.61.2c-1.58.52-3.13,1.25-4.59,2.19-1.66,1.05-3.24,2.34-4.85,3.97-1.52,1.52-3.04,3.36-4.52,5.46-1.4,1.96-2.74,4.2-4.14,6.82-1.28,2.43-2.54,5.14-3.73,8.06-.35.87-.68,1.72-1,2.57-.75,2.01-1.4,3.97-1.96,5.86-.82,2.78-1.4,5.29-1.78,7.64-.4,2.46-.59,4.82-.61,7-.03,2.19.12,4.34.47,6.39.32,1.96.84,3.89,1.54,5.72.68,1.78,1.55,3.45,2.57,4.97,1.07,1.55,2.27,2.92,3.59,4.06,1.37,1.2,2.91,2.22,4.56,3.01,2.02.97,4.06,1.55,6.04,1.72.32.03.59.02.88.03,1.63.05,3.29-.18,4.85-.67,1.05-.32,2.16-.79,3.32-1.4.81-.44,1.46-.85,2.07-1.28,1.73-1.22,3.42-2.75,5.02-4.56,1.6-1.8,3.09-3.83,4.58-6.22,1.46-2.34,2.84-4.94,4.11-7.73,1.25-2.71,2.46-5.75,3.61-9.04.21-.59.4-1.17.59-1.73l.67-2.16v-.05h.03c.33-1.08.64-2.15.93-3.18.35-1.26.68-2.48.97-3.68.79-3.42,1.29-6.44,1.55-9.16.03-.35.06-.7.09-1.05.14-1.89.15-3.61.05-5.25ZM98.27,122.29h-.02c-.38,3.33-1.17,6.18-2.34,8.47-1.19,2.36-2.78,4.21-4.75,5.51-2.02,1.32-4.37,2.01-6.97,2.07h-.27c-2.6,0-4.85-.67-6.68-1.96-1.49-1.08-2.65-2.57-3.45-4.43l-.12-.27c-.12-.29-.24-.58-.35-.9-.73-2.33-.91-5.07-.5-8.12.3-2.24.9-4.37,1.73-6.3.17-.38.35-.75.53-1.1.17-.32.33-.62.5-.91.65-1.14,1.38-2.15,2.16-3.01,1.31-1.46,2.78-2.6,4.43-3.41,1.69-.84,3.5-1.29,5.37-1.35,2.4-.09,4.56.52,6.28,1.72.18.12.35.26.52.41,1.51,1.23,2.6,2.92,3.29,5.05.79,2.39,1,5.26.64,8.53Z"/>
        <path class="cls-1" d="M142.36,113.69c-.12,2.24-.21,3.93-.32,5.61l-.32,5.6-.05.52c-.09,1.06-.29,1.73-.64,2.07-.14.14-.38.33-.94.33-.43-.02-.88-.33-1.46-.76-1.08-.78-2.56-1.84-5.23-1.92-.62-.03-1.28.05-1.95.24-.76.2-1.52.53-2.27.99-1.57.99-2.95,2.48-3.99,4.32-1.22,2.18-1.95,4.79-2.15,7.77-.29,4.2-.41,7.44-.49,9.51-.08,2.25-.11,4.12-.14,5.78v1.72c-.05,1.4-.08,2.65-.12,3.83-.11,2.02-.3,4.06-1.05,5.34-.7,1.19-1.86,1.73-3.77,1.76-1.93-.05-3.29-.55-4.11-1.81-.03-.08-.06-.15-.09-.2-.64-1.16-.9-2.83-.75-4.97.11-1.57.26-3.18.43-4.85.11-1.05.23-2.11.35-3.21l.38-3.42c.17-1.52.33-3.15.49-4.85.21-2.5.4-4.81.52-7.07l.52-8.95c.08-1.4.15-2.8.24-4.24v-.15c.03-.5.06-1.02.11-1.57l.08-1.49c.08-1.19.15-2.46.23-3.85.09-1.49.23-2.8.41-3.93.26-1.66.59-2.95,1.05-3.97.38-.88.85-1.54,1.41-1.96.53-.41,1.17-.61,1.93-.61h.06c1.8.06,2.84.47,3.51,1.41.84,1.19.23,3.36.93,6.47.05.2.24.56.4.7.47.41.94-.23,2.74-2.42l.33-.4c1.11-1.37,2.27-2.42,3.47-3.13,1.34-.81,2.66-1.19,4.15-1.11.61,0,1.22.09,1.84.27,1.28.35,2.28,1,2.98,1.95.91,1.19,1.35,2.84,1.26,4.64Z"/>
        <path class="cls-1" d="M189.52,142.17c-.14-2.3-.44-4.81-.94-7.67-.4-2.28-.91-4.78-1.64-7.85l-.21-.52.09-.09c-.85-3.48-1.87-6.75-3.03-9.57-.84-2.07-1.78-3.96-2.8-5.6-.17-.29-.37-.56-.55-.84l-.32-.49-.09-.12c-.84-1.19-1.72-2.22-2.66-3.1-.55-.5-1.13-.96-1.7-1.37-1.54-1.06-3.2-1.78-4.94-2.11-1.75-.33-3.64-.32-5.6.03-2.04.38-3.85,1.02-5.42,1.93-1.92,1.25-3.24,1.6-4.23,1.13-.91-.43-1.42-1.48-1.61-3.27-.3-2.69-.47-3.91-.82-6.4-.35-2.37-1.1-4.29-2.15-5.55-.96-1.13-2.15-1.69-3.51-1.69-.26,0-.53.02-.81.06-1.73.26-2.68,1.06-3.06,2.63-.41,1.61-.17,3.83.14,6.01.14.85.27,1.8.44,2.83l3.59,23.84c.14,1.02.29,2.01.43,2.97.06.49.12.96.18,1.41.02.14.03.18.03.23.4,2.92.76,5.54,1.13,7.96.35,2.43.68,4.66,1.02,6.88.35,2.22.7,4.44,1.1,6.85l.79,4.69c.18,1.02.37,2.08.56,3.19.44,2.42.9,4.24,1.61,5.28.47.65,1.22,1.29,3.16.91,1.67-.3,3.8-1.14,4.52-3.3.53-1.66.9-2.75,1.8-3.13.79-.32,1.75.03,3.32.85,1.8.9,3.76,1.6,5.54,1.93,1.66.32,3.24.4,4.24.18,2.04-.43,3.88-1.1,5.43-1.98l.15-.09c.29-.15.55-.3.81-.47,1.64-1.11,2.92-2.48,3.88-4.17.9-1.58,1.52-3.47,1.86-5.6.2-1.16.3-2.36.33-3.68.03-1,.02-2.05-.05-3.12ZM179.63,131.55h-.02c-.02.15-.03.27-.06.41-.02.12-.05.23-.06.35-.33,1.96-1.05,3.59-2.11,4.87-1.48,1.76-3.58,2.92-6.25,3.45-.79.15-1.57.23-2.36.23-1.09,0-2.16-.15-3.19-.46-1.6-.47-3.04-1.34-4.31-2.57l-.18-.2c-.2-.18-.4-.38-.59-.59-1.52-1.86-2.56-4.29-3.09-7.27-.41-2.48-.44-4.94-.11-7.14.05-.32.11-.64.17-.96v-.02c.47-2.18,1.32-4.09,2.53-5.58,1.63-1.99,3.88-3.29,6.68-3.8.52-.09,1.02-.15,1.51-.17,1.9-.09,3.61.41,5.08,1.51,1.52,1.1,2.78,2.81,3.88,5.25.81,1.78,1.48,3.96,2.08,6.65.47,2.15.61,4.18.41,6.04Z"/>
        <path class="cls-1" d="M213.02,148.87c0,.38-.05.73-.14,1.05-.35,1.23-1.45,2.15-3.29,2.68-1.73.49-3.16.3-4.37-.59-1.13-.85-2.11-2.36-3.01-4.64-.68-1.7-1.35-3.54-2.19-5.93l-2.39-6.79c-.85-2.43-1.86-5.14-3.07-8.29-.2-.5-.4-.99-.58-1.46l-.14-.38c-.55-1.38-1.03-2.66-1.51-3.88l-.58-1.51c-.18-.52-.38-1.03-.58-1.52l-1.6-4.23-.05-.14c-.62-1.66-1.28-3.44-2.01-5.43l-.15-.41c-.14-.38-.29-.78-.44-1.2-.08-.21-.15-.43-.21-.62-.47-1.31-.78-2.43-.94-3.38-.15-.91-.17-1.63-.05-2.19.23-1.06,1.02-1.73,2.74-2.27,1.69-.55,2.69-.52,3.59.08.53.35,1.05.93,1.55,1.76.58.91,1.14,2.11,1.72,3.68.67,1.78,1.25,3.39,1.87,5.16.2.59.41,1.19.64,1.83.46,1.29.96,2.71,1.55,4.35.94,2.56,2.08,5.58,3.51,9.25l.23.58c.17.41.33.81.49,1.2,1,2.51,2.04,5.01,3.06,7.38.81,1.92,1.57,3.62,2.24,5.16l.7,1.6c.53,1.26,1.08,2.4,1.57,3.42.24.53.49,1.03.7,1.51.76,1.72,1.13,3.09,1.13,4.18Z"/>
        <path class="cls-1" d="M244.94,137.64v.02c-.5.96-1.35,1.86-2.59,2.74-.59.43-1.22.81-1.9,1.16-1.69.85-3.23,1.32-4.7,1.48-.41.05-.82.06-1.28.06-1.95-.08-3.74-.76-5.48-2.08-1.83-1.4-3.62-3.53-5.31-6.36-.2-.33-.38-.67-.62-1.06l-.47-.82c-.46-.82-1.05-1.89-1.93-3.41-.88-1.54-2.04-3.53-3.59-6.19-1.05-1.8-2.27-3.88-3.73-6.36-.7-1.22-1.46-2.54-2.28-3.96-1.61-2.75-2.92-5.26-4.2-7.68l-.65-1.25c-.97-1.84-1.87-3.54-2.71-5.13l-.3-.59c-.29-.56-.56-1.11-.85-1.61l-6.15-11.76c-.34-.61-.61-1.16-.85-1.63-1.42-2.72-2.08-4.75-2.05-6.19l.03-.15c.06-1.29.65-2.11,1.9-2.69.7-.32,1.32-.49,1.92-.49.56,0,1.08.15,1.57.44,1.1.65,2.13,2.01,3.27,4.29.49.99,1.03,2.15,1.66,3.47l.65,1.35c.72,1.48,1.51,3.09,2.39,4.84.76,1.54,2.21,2.02,3.86,1.29,1.81-.82,2.71-1.23,4.49-2.05.85-.41,1.66-.73,2.4-.96,2.49-.76,2.94.03,3.07.29.9,1.63.36,3.13-.73,4.91l-1,1.51c-.49.73-.97,1.46-1.46,2.24-.4.64-.9,1.51-1.31,2.46-1.16,2.91-.9,5.77.81,8.73.68,1.17,1.08,1.86,1.69,2.94l.23.37c1.64,2.83,2.92,4.9,4,6.47.33.49.65.93.96,1.32,1.35,1.83,2.45,2.83,3.53,3.29,1.31.53,2.46.14,3.33-.27,2.69-1.31,2.81-3,2.91-4.23.06-.84.09-1.28.59-1.48.67-.24,1.05.35,2.78,2.33,1.61,1.84,3.44,4.44,5.14,7.3.64,1.11,1.19,2.11,1.64,3.07.64,1.31,1.08,2.34,1.38,3.26.15.5.3,1,.41,1.46.49,2.11.33,3.86-.47,5.34Z"/>
        <path class="cls-1" d="M280.66,108.63c-.02,1.06-.3,2.13-.87,3.29-.26.49-.52.93-.81,1.35-1.05,1.51-2.62,3.1-4.93,5.04-2.5,2.07-4.58,3.64-6.36,4.81-1.95,1.25-3.64,2.08-5.19,2.56-1.54.47-2.88.52-4.11.17-1.08-.3-2.07-.96-3.04-1.98l-.14-.14c-.09-.09-.18-.18-.27-.29l-.76-.88c-1.16-1.34-2.3-2.65-3.35-3.96-1.46-1.8-2.56-3.29-3.42-4.67-.52-.84-.99-1.67-1.37-2.5-.38-.79-.68-1.55-.9-2.27-.5-1.83-.79-4.18-.97-6.02-.2-2.05-.32-4.35-.38-7.07v-.17c-.05-2.45-.03-4.85,0-6.88.02-1.29.05-2.54.06-3.71.02-.49.03-.94.03-1.4.02-.43.03-.84.03-1.23.03-2.16.02-3.68-.03-4.81l-.06-1.05-.85.62c-.73.53-1.75,1.34-3.16,2.51l-1.32,1.05c-.97.79-2.05,1.67-3.21,2.59-.59.46-.93,1-.97,1.6-.12,1.14.78,2.18,1.48,3l.35.4c.24.3.44.62.61.99.76,1.7-.08,3.16-1.1,3.97-1.13.88-2.4,1.23-3.67,1-.64-.11-1.26-.37-1.9-.78-.59-.38-1.17-.9-1.7-1.54-.27-.33-.58-.68-.88-1.03l-.11-.12c-.7-.82-1.43-1.67-2.05-2.57-1.06-1.55-1.52-2.81-1.46-4.02.03-.96.44-1.87,1.23-2.81.46-.53.96-1,1.55-1.45,1.32-1,3.32-2.53,5.49-4.2,2.18-1.67,4.55-3.53,6.66-5.2l.44-.35c.23-.17.44-.33.65-.52,1.64-1.31,3.07-2.45,4.02-3.21,1.16-.94,2.08-1.38,2.71-1.31.56.06.97.55,1.51,1.22.14.18.3.4.52.64.94,1.14,2.54,3.06,2.63,4.67.09,1.8.14,3.61.17,5.2,0,.29.02.58.02.85l.02,2.1c0,1.43,0,2.89.03,4.4.02,1.23.05,2.48.09,3.76.03,1.13.08,2.27.14,3.45.12,2.37.3,5.19.67,8.2.12.99.49,4.02,2.68,4.34.91.12,2.01-.21,3.33-1.03.73-.46,1.58-1.06,2.57-1.89,3.42-2.86,4.55-5.16,3.65-7.47-.14-.35-.32-.68-.49-.99-.52-.97-.73-1.37.14-2.1.29-.24,1.17-.97,3.41.33,1.67.96,3.79,2.88,6.47,5.86,2.33,2.59,3.89,4.66,4.94,6.51.78,1.37,1.28,2.69,1.46,3.91.06.41.09.82.09,1.23Z"/>
        <path class="cls-1" d="M186.45,92.32l.23-.33.39.11c1.22.34,1.94.54,2.97.82l.78.21c.67.18,1.24-.2,1.39-.69h0c.06-.19.12-.57-.2-.95l-.24-.28c-.4-.48-.74-.9-1.06-1.29-.33-.39-.67-.8-1.11-1.35l-.28-.35.81-1.13c.52-.75.93-1.34,1.55-2.26.39-.56.08-1.06-.03-1.2-.23-.3-.71-.58-1.29-.38-.84.29-1.44.5-2.08.73l-.47.16c-.31.1-.64.22-1.03.36l-.38.14-.26-.32c-.94-1.17-1.42-1.77-2.36-2.95-.25-.31-.57-.43-.86-.43-.15,0-.29.03-.42.07-.17.06-.72.32-.7,1l.1,4.13-.39.14c-1.45.5-2.18.75-3.66,1.24-.57.19-.76.65-.75,1.03,0,.37.22.82.79.99l4.14,1.18.09,3.49c.02.2.02.4.02.65.02.67.61.9.79.96.38.11.97.08,1.32-.42l.55-.77c.56-.78.97-1.36,1.64-2.3Z"/>
      </g>
      <path class="cls-1" d="M283.97,139.37c-7.11,6.56-15.47,12.34-25.57,17.66-10.5,5.52-22.49,10.36-37.75,15.21-26.34,8.38-53.92,13.39-81.96,14.86-11.81.61-29.51.75-46.83-2.04-36.54-5.87-54.95-21.6-54.74-46.77.02-1.87.7-3.45,2.01-4.53,1.14-.97,2.68-1.51,4.32-1.51h.06c3,.03,6.19,1.93,6.16,6.04-.11,11.09,5.99,19.93,18.12,26.24.46.24.91.5,1.38.73.11.05.21.09.32.14l.18.08c3.7,1.76,7.93,3.3,12.7,4.61,24.08,6.56,50.11,5.22,67.59,3.64,25.25-2.28,49.99-7.53,73.53-15.64,11.27-3.88,25.88-9.4,38.84-17.77,5.55-3.61,10.5-7.53,14.7-11.68,4.61-4.62,7.79-9.33,9.4-13.95.94-2.02,1.42-3.97,1.45-5.98,0-.35-.03-.7-.06-1.05l-.02-.26c.09-4.87-1.43-9.83-4.53-14.73-1.19-1.87-1.32-3.88-.38-5.63,1.08-2.07,3.44-3.51,5.87-3.61,2.21-.06,4.12.96,5.37,2.94,10.73,16.99,6.82,37.3-10.18,52.99Z"/>
    </g>
  </g>
</svg>