<svg width="53" height="52" viewBox="0 0 53 52" fill="none" xmlns="http://www.w3.org/2000/svg">
<path d="M27.1219 52H25.8798V40.7044L12.7755 42.3306C12.5616 42.3563 12.3529 42.2723 12.2183 42.1095C12.082 41.945 12.0406 41.724 12.1096 41.5218L13.6916 36.8044L0.249236 26.7889C0.0646453 26.6501 -0.0285127 26.4239 0.00771539 26.196C0.0439435 25.9681 0.206107 25.7813 0.425201 25.7093L4.92094 24.2203L1.79152 18.0036C1.68283 17.7877 1.71044 17.529 1.86225 17.3422C2.01406 17.1554 2.25903 17.068 2.4971 17.1297L8.84047 18.7044L10.3845 14.1053C10.4518 13.9014 10.6208 13.7489 10.8313 13.6992C11.04 13.6512 11.2609 13.7129 11.4127 13.8637L18.5306 20.932L15.5427 7.58193C15.4944 7.36603 15.5668 7.13813 15.7324 6.99076C15.8998 6.84169 16.1361 6.79371 16.3449 6.86396L21.0493 8.42156L25.9695 0.278877C26.1937 -0.0929589 26.8096 -0.0929589 27.0339 0.278877L31.954 8.42156L36.6585 6.86396C36.8759 6.79371 37.1053 6.84169 37.2709 6.99076C37.4383 7.13813 37.5107 7.36603 37.4607 7.58193L34.4744 20.9355L41.5907 13.8672C41.7425 13.7164 41.9616 13.653 42.1738 13.7027C42.3825 13.7523 42.5516 13.9049 42.6206 14.1088L44.1646 18.7079L50.508 17.1331C50.7374 17.0766 50.991 17.1571 51.1428 17.3456C51.2946 17.5324 51.3222 17.7911 51.2136 18.007L48.0807 24.2237L52.5764 25.7128C52.7955 25.7847 52.956 25.9715 52.9922 26.1994C53.0284 26.4273 52.937 26.6535 52.7507 26.7923L39.3083 36.8061L40.892 41.5252C40.9593 41.7274 40.9179 41.9484 40.7833 42.1129C40.6505 42.2774 40.4521 42.3631 40.2261 42.334L27.1219 40.7079V52ZM1.94333 26.5096L14.7974 36.0848C15.0113 36.2441 15.0993 36.5217 15.0131 36.7736L13.6002 40.9854L26.4249 39.3919C26.4767 39.3833 26.5284 39.3867 26.5784 39.3919L39.4032 40.9854L37.9903 36.7736C37.9058 36.5217 37.9938 36.2424 38.2077 36.0848L51.06 26.5096L47.0077 25.1679C46.8369 25.1113 46.6989 24.9845 46.6298 24.8183C46.5626 24.6538 46.5677 24.4653 46.6488 24.306L49.4953 18.6513L43.9041 20.0393C43.585 20.1198 43.2675 19.9399 43.164 19.6366L41.758 15.4436L33.843 23.3053C33.6481 23.5006 33.3428 23.5417 33.1047 23.4098C32.8614 23.2778 32.7372 23.0037 32.7959 22.7347L36.0081 8.37701L31.8729 9.74612C31.5952 9.84036 31.2933 9.72727 31.1432 9.47881L26.5008 1.79364L21.8584 9.47881C21.7084 9.72727 21.403 9.83693 21.1304 9.74612L16.9935 8.37701L20.2075 22.7347C20.2679 23.002 20.1419 23.2778 19.9004 23.4098C19.6572 23.5452 19.3587 23.4989 19.162 23.3053L11.2453 15.4453L9.83761 19.6383C9.73583 19.945 9.41495 20.1215 9.09752 20.041L3.50632 18.653L6.35281 24.3077C6.43389 24.467 6.44079 24.6555 6.37179 24.82C6.30278 24.9862 6.16477 25.113 5.99398 25.1696L1.94333 26.5096Z" fill="#32327B"/>
</svg>
