<svg width="1200" height="648" viewBox="0 0 1200 648" fill="none" xmlns="http://www.w3.org/2000/svg">
<ellipse cx="1066.02" cy="72.0313" rx="17.4757" ry="14.9032" transform="rotate(-180 1066.02 72.0313)" fill="#F47A20"/>
<ellipse cx="1001.94" cy="49.6754" rx="26.2136" ry="22.3548" transform="rotate(-180 1001.94 49.6754)" fill="#F47A20"/>
<ellipse cx="318.932" cy="88.1768" rx="45.1456" ry="38.5" transform="rotate(-180 318.932 88.1768)" fill="#F47A20"/>
<ellipse cx="257.767" cy="36.0155" rx="16.0194" ry="13.6613" transform="rotate(-180 257.767 36.0155)" fill="#F47A20"/>
<ellipse cx="298.544" cy="6.20927" rx="7.28155" ry="6.20968" transform="rotate(-180 298.544 6.20927)" fill="#F47A20"/>
<ellipse cx="133.981" cy="575.963" rx="17.4757" ry="14.9032" fill="#F47A20"/>
<ellipse cx="198.058" cy="598.319" rx="26.2136" ry="22.3548" fill="#F47A20"/>
<ellipse cx="881.068" cy="559.817" rx="45.1456" ry="38.5" fill="#F47A20"/>
<ellipse cx="942.233" cy="611.979" rx="16.0194" ry="13.6613" fill="#F47A20"/>
<ellipse cx="901.456" cy="641.785" rx="7.28155" ry="6.20968" fill="#F47A20"/>
<path d="M1200 566.027C1200 566.027 978.5 534.271 891.262 539.334C804.024 544.397 637.204 609.743 543.204 611.875C449.204 614.007 362.602 559.014 234.5 551.753C106.398 544.492 0 566.027 0 566.027V265.214H1200V566.027Z" fill="#F47A20"/>
<path d="M3.08373e-05 81.9667C3.08373e-05 81.9667 221.5 113.723 308.738 108.66C395.976 103.597 562.796 38.2502 656.796 36.1181C750.796 33.9861 837.398 88.979 965.5 96.2402C1093.55 103.498 1199.91 81.9854 1200 81.9668L1200 382.78L0 382.78L3.08373e-05 81.9667Z" fill="#F47A20"/>
</svg>
