<?xml version="1.0" encoding="UTF-8"?>
<svg id="Layer_2" data-name="Layer 2" xmlns="http://www.w3.org/2000/svg" viewBox="0 0 436.95 436.95">
  <defs>
    <style>
      .cls-1 {
        fill: #f47a20;
        stroke: #d66823;
        stroke-linecap: round;
      }

      .cls-1, .cls-2 {
        stroke-linejoin: round;
        stroke-width: 10px;
      }

      .cls-2 {
        fill: #f8991d;
        stroke: #f36c37;
      }
    </style>
  </defs>
  <g id="box">
    <path id="orange-peel" class="cls-1" d="M355.42,355.42c91.53-91.53,100.99-233.93,28.19-335.33-13.04-18.17-39.3-20.29-55.18-4.41L15.68,328.42c-15.88,15.88-13.76,42.14,4.41,55.18,101.4,72.8,243.8,63.34,335.33-28.19Z"/>
    <g id="orange-slices">
      <path id="slice4" class="cls-2" d="M393.09,172.85l-154.1,3.19c-13.49.28-20.59-15.9-11.25-25.64l106.7-111.21c6.14-6.4,16.41-6.16,22.31.46,28.07,31.56,46.64,71.84,51.09,116.4.88,8.85-5.86,16.62-14.75,16.8Z"/>
      <path id="slice3" class="cls-2" d="M385.73,189.49h-154.27c-13.51,0-20.27,16.33-10.72,25.89l109.07,109.07c6.27,6.27,16.55,5.83,22.31-.92,27.44-32.16,45.18-72.85,48.72-117.53.7-8.88-6.21-16.51-15.11-16.51Z"/>
      <path id="slice2" class="cls-2" d="M183,392.2v-154.14c0-13.5,16.32-20.26,25.86-10.71l108.98,108.98c6.27,6.27,5.82,16.54-.92,22.29-32.14,27.41-72.79,45.15-117.43,48.67-8.87.7-16.49-6.2-16.49-15.1Z"/>
      <path id="slice1" class="cls-2" d="M166.35,393.47v-152.18c0-13.33-16.11-20-25.54-10.58l-107.6,107.6c-6.19,6.19-5.75,16.33.91,22.01,31.73,27.07,71.86,44.57,115.94,48.06,8.76.69,16.28-6.12,16.28-14.91Z"/>
    </g>
  </g>
</svg>