<svg width="1200" height="612" viewBox="0 0 1200 612" fill="none" xmlns="http://www.w3.org/2000/svg">
<ellipse cx="133.981" cy="539.905" rx="17.4757" ry="14.9032" fill="#F47A20"/>
<ellipse cx="198.058" cy="562.261" rx="26.2136" ry="22.3548" fill="#F47A20"/>
<ellipse cx="881.068" cy="523.76" rx="45.1456" ry="38.5" fill="#F47A20"/>
<ellipse cx="942.233" cy="575.921" rx="16.0194" ry="13.6613" fill="#F47A20"/>
<ellipse cx="901.456" cy="605.727" rx="7.28155" ry="6.20968" fill="#F47A20"/>
<path d="M1200 529.97C1200 529.97 978.5 498.213 891.262 503.276C804.024 508.339 637.204 573.685 543.204 575.817C449.204 577.949 362.602 522.957 234.5 515.695C106.398 508.434 0 529.97 0 529.97V229.156H1200V529.97Z" fill="#F47A20"/>
<path d="M3.08373e-05 45.9091C3.08373e-05 45.9091 221.5 77.6654 308.738 72.6025C395.976 67.5394 562.796 2.19261 656.796 0.0605064C750.796 -2.07148 837.398 52.9214 965.5 60.1826C1093.55 67.4407 1199.91 45.9278 1200 45.9092L1200 346.723L0 346.723L3.08373e-05 45.9091Z" fill="#F47A20"/>
</svg>
