<svg width="1200" height="648" viewBox="0 0 1200 648" fill="none" xmlns="http://www.w3.org/2000/svg">
<ellipse cx="133.981" cy="575.968" rx="17.4757" ry="14.9032" fill="#ED1761"/>
<ellipse cx="198.058" cy="598.323" rx="26.2136" ry="22.3548" fill="#ED1761"/>
<ellipse cx="881.068" cy="559.823" rx="45.1456" ry="38.5" fill="#ED1761"/>
<ellipse cx="942.233" cy="611.984" rx="16.0194" ry="13.6613" fill="#ED1761"/>
<ellipse cx="901.456" cy="641.791" rx="7.28155" ry="6.20968" fill="#ED1761"/>
<path d="M1200 566.032C1200 566.032 978.5 534.276 891.262 539.339C804.024 544.402 637.204 609.748 543.204 611.88C449.204 614.012 362.602 559.019 234.5 551.758C106.398 544.497 0 566.032 0 566.032V265.219H1200V566.032Z" fill="#ED1761"/>
<ellipse cx="1066.02" cy="72.0323" rx="17.4757" ry="14.9032" transform="rotate(-180 1066.02 72.0323)" fill="#ED1761"/>
<ellipse cx="1001.94" cy="49.6774" rx="26.2136" ry="22.3548" transform="rotate(-180 1001.94 49.6774)" fill="#ED1761"/>
<ellipse cx="318.932" cy="88.1777" rx="45.1456" ry="38.5" transform="rotate(-180 318.932 88.1777)" fill="#ED1761"/>
<ellipse cx="257.767" cy="36.0164" rx="16.0194" ry="13.6613" transform="rotate(-180 257.767 36.0164)" fill="#ED1761"/>
<ellipse cx="298.544" cy="6.21025" rx="7.28155" ry="6.20968" transform="rotate(-180 298.544 6.21025)" fill="#ED1761"/>
<path d="M3.08373e-05 81.9677C3.08373e-05 81.9677 221.5 113.724 308.738 108.661C395.976 103.598 562.796 38.2512 656.796 36.1191C750.796 33.9871 837.398 88.98 965.5 96.2412C1093.55 103.499 1199.91 81.9864 1200 81.9678L1200 382.781L0 382.781L3.08373e-05 81.9677Z" fill="#ED1761"/>
</svg>
