<svg width="47" height="47" viewBox="0 0 47 47" fill="none" xmlns="http://www.w3.org/2000/svg">
<path d="M15.9411 25.1639L17.6253 26.1757C17.8995 26.1757 18.0431 26.0582 18.0431 25.8298C18.0229 25.6135 17.9561 25.4041 17.8472 25.2162L14.1917 18.3555L6.10376 18.5513C6.02844 18.545 5.95265 18.5554 5.88189 18.582C5.81114 18.6086 5.74719 18.6506 5.69468 18.705C5.64218 18.7594 5.60244 18.8248 5.57836 18.8964C5.55427 18.9681 5.54644 19.0442 5.55543 19.1192C5.55543 19.2041 5.67293 19.3151 5.9014 19.4652L7.57904 20.477L5.77084 23.2382C5.35616 23.8143 5.10163 24.4901 5.0332 25.1966C5.05765 25.7524 5.22637 26.2924 5.52279 26.7632L11.0257 36.3591C10.8998 35.7932 10.8341 35.2155 10.8299 34.6357C10.8449 33.6042 11.1652 32.6002 11.7503 31.7505L15.9476 25.1639H15.9411Z" fill="#32327B"/>
<path d="M18.0619 19.583L22.5987 12.533C20.9015 8.66855 19.0998 6.73633 17.1937 6.73633C16.0448 6.73633 15.2745 7.05619 14.8763 7.69591L10.5811 14.5566L18.0619 19.583Z" fill="#32327B"/>
<path d="M14.3616 38.6121H23.1153V29.5059H14.6814C13.971 30.4702 13.3171 31.475 12.7231 32.5152C12.3055 33.3066 12.0818 34.1858 12.0703 35.0806C12.0703 37.4349 12.8275 38.6121 14.342 38.6121H14.3616Z" fill="#32327B"/>
<path d="M32.3972 17.8859L36.3139 11.3581C36.4406 11.1399 36.5081 10.8923 36.5097 10.64C36.5097 10.3463 36.4118 10.1961 36.216 10.1961C36.0903 10.2631 35.9565 10.3136 35.8178 10.3463L34.0227 11.097L32.3972 7.89183C31.6879 6.44702 30.2453 5.72461 28.0693 5.72461L17.9121 5.72461C18.808 5.94551 19.6585 6.32105 20.4253 6.83433C21.4654 7.65683 22.5272 9.20174 23.6109 11.4691L25.6345 15.7121L24.1527 16.4302C24.0787 16.4651 24.0176 16.5222 23.9778 16.5936C23.938 16.6651 23.9215 16.7471 23.9307 16.8284C23.9307 17.0699 24.0874 17.2135 24.4007 17.2461L32.4234 17.8989L32.3972 17.8859Z" fill="#32327B"/>
<path d="M36.2946 37.2533L41.9672 26.9395C41.2448 27.8152 40.3 28.4803 39.2321 28.8651C38.1316 29.1683 36.9915 29.3026 35.8507 29.2633H29.5318V27.9578C29.5318 27.4486 29.4077 27.194 29.1597 27.194C29.0828 27.188 29.0057 27.203 28.9366 27.2375C28.8676 27.272 28.8093 27.3247 28.768 27.3899L24.8057 34.3158L28.9508 40.687C29.2641 41.1635 29.5318 41.3397 29.7602 41.2483C29.9887 41.157 30.1062 41.0656 30.1062 40.8828L30.1062 38.709H33.6116C34.1566 38.7551 34.7032 38.6421 35.1852 38.3837C35.6672 38.1253 36.0639 37.7327 36.3272 37.2533H36.2946Z" fill="#32327B"/>
<path d="M33.827 27.9523H37.6001C38.6475 27.8954 39.6424 27.4753 40.4136 26.7642C41.4537 25.9417 41.9715 25.0713 41.9672 24.1531C41.9569 23.7008 41.8113 23.262 41.5494 22.8932L37.0583 16.0391L29.3359 20.5302L33.827 27.9523Z" fill="#32327B"/>
</svg>
