<?xml version="1.0" encoding="UTF-8"?>
<svg id="Layer_2" data-name="Layer 2" xmlns="http://www.w3.org/2000/svg" viewBox="0 0 195.76 197.27">
  <defs>
    <style>
      .cls-1, .cls-2, .cls-3 {
        fill: #fff;
      }

      .cls-4 {
        fill: #32327b;
      }

      .cls-2 {
        stroke-linecap: round;
        stroke-linejoin: round;
        stroke-width: 3px;
      }

      .cls-2, .cls-3 {
        stroke: #32327b;
      }

      .cls-3 {
        stroke-miterlimit: 10;
      }
    </style>
  </defs>
  <g id="pfp">
    <path class="cls-4" d="M195.76,97.88c0,39-22.81,72.68-55.81,88.41-1.12.54-2.25,1.05-3.4,1.54-.43.19-.86.37-1.29.54-11.51,4.77-24.14,7.4-37.38,7.4s-25.87-2.63-37.38-7.4c-.57-.23-1.14-.47-1.7-.72-1.14-.49-2.27-1.01-3.39-1.55C22.62,170.29,0,136.72,0,97.88,0,43.82,43.82,0,97.88,0s97.88,43.82,97.88,97.88Z"/>
    <g>
      <path class="cls-1" d="M147.84,89.92v15.05c0,2.81-2.28,5.09-5.1,5.09h-4.23c-2.63,8.5-7.86,15.93-14.84,21.29,4.84,2.32,8.49,7.45,9.57,14l6.71,40.94c-1.12.54-2.25,1.05-3.4,1.54-.43.19-.86.37-1.29.54-11.51,4.77-24.14,7.4-37.38,7.4s-25.87-2.63-37.38-7.4c-.57-.23-1.14-.47-1.7-.72-1.14-.49-2.27-1.01-3.39-1.55l6.69-40.75c1.06-6.44,4.77-11.61,9.59-13.97-6.99-5.36-12.23-12.81-14.87-21.32h-4.23c-2.82,0-5.1-2.28-5.1-5.09v-15.05c0-2.82,2.28-5.1,5.1-5.1h4.22c5.5-17.88,21.91-30.12,40.86-30.12,13.93,0,26.54,6.67,34.4,17.33v-8.9c-1.49-1.68-2.35-3.88-2.35-6.16,0-5.14,4.18-9.31,9.31-9.31s9.31,4.17,9.31,9.31c0,2.28-.86,4.47-2.35,6.16v22.85c1.13.94,1.85,2.35,1.85,3.94Z"/>
      <path class="cls-1" d="M144.24,89.91v15.05c0,.83-.67,1.5-1.5,1.5h-6.98c-2.91,12.28-11.61,22.35-23.07,27.12h5.03c5.83,0,10.76,5.08,11.96,12.35l6.86,41.85s.01.03.01.05c-.43.19-.86.37-1.29.54-11.51,4.77-24.14,7.4-37.38,7.4s-25.87-2.63-37.38-7.4c-.57-.23-1.14-.47-1.7-.72l6.85-41.72c1.17-7.15,6.2-12.35,11.96-12.35h5.02c-11.45-4.77-20.16-14.84-23.07-27.12h-6.97c-.84,0-1.5-.67-1.5-1.5v-15.05c0-.83.66-1.5,1.5-1.5h6.96c4.1-17.24,19.62-30.12,38.11-30.12s33.8,12.68,38.01,29.73v-26.46c-1.45-1.04-2.35-2.77-2.35-4.6,0-3.15,2.56-5.71,5.71-5.71s5.7,2.56,5.7,5.71c0,1.82-.89,3.54-2.35,4.6v26.85h.36c.83,0,1.5.67,1.5,1.5Z"/>
    </g>
    <path class="cls-2" d="M135.26,188.37c-11.51,4.77-24.14,7.4-37.38,7.4s-25.87-2.63-37.38-7.4l6.85-41.74c1.06-6.48,5.43-11.1,10.48-11.1h40.1c5.06,0,9.42,4.62,10.49,11.1l6.84,41.74Z"/>
    <path class="cls-2" d="M97.88,60.24c-20.79,0-37.65,16.85-37.65,37.64s16.86,37.65,37.65,37.65,37.65-16.85,37.65-37.65-16.86-37.64-37.65-37.64ZM97.91,128.9c-18.69,0-33.83-12-33.83-26.8s15.14-26.81,33.83-26.81,33.83,12,33.83,26.81-15.15,26.8-33.83,26.8Z"/>
    <rect class="cls-2" x="52.8" y="90.35" width="7.43" height="15.06"/>
    <rect class="cls-2" x="135.53" y="90.35" width="7.43" height="15.06"/>
    <path class="cls-4" d="M97.91,75.29c-18.69,0-33.83,12-33.83,26.81s15.14,26.8,33.83,26.8,33.83-12,33.83-26.8-15.15-26.81-33.83-26.81ZM80.46,93.32c-3.43,2.9-7.34,3.93-8.73,2.29-1.38-1.64.28-5.32,3.72-8.22,3.43-2.91,7.34-3.93,8.72-2.29,1.39,1.64-.27,5.32-3.71,8.22Z"/>
    <path class="cls-3" d="M80.46,93.32c-3.43,2.9-7.34,3.93-8.73,2.29-1.38-1.64.28-5.32,3.72-8.22,3.43-2.91,7.34-3.93,8.72-2.29,1.39,1.64-.27,5.32-3.71,8.22Z"/>
    <path class="cls-2" d="M143.45,57.4c0,1.65-.96,3.08-2.35,3.76v29.13h-3.71v-29.13c-1.39-.67-2.35-2.1-2.35-3.76,0-2.32,1.88-4.2,4.2-4.2s4.21,1.88,4.21,4.2Z"/>
  </g>
</svg>