<svg width="32" height="32" viewBox="0 0 32 32" fill="none" xmlns="http://www.w3.org/2000/svg">
<path d="M27.1621 20.2584C28.8486 20.9325 29.6957 22.8736 28.6852 24.3826C27.5326 26.104 26.0438 27.5892 24.2966 28.7423C21.6286 30.5028 18.4859 31.4052 15.2902 31.3281C12.0946 31.2513 8.99929 30.1985 6.41899 28.3118C4.72919 27.0757 3.31347 25.5208 2.245 23.7458C1.30829 22.1897 2.24798 20.2917 3.96505 19.6999C5.68212 19.1081 7.51758 20.0818 8.67891 21.478C9.15283 22.0479 9.69685 22.5606 10.3016 23.0028C11.7985 24.0975 13.5947 24.7085 15.4485 24.7532C17.3026 24.7978 19.1258 24.2742 20.6737 23.2527C21.2992 22.8399 21.8675 22.3542 22.3681 21.8078C23.5951 20.4687 25.4755 19.5847 27.1621 20.2584Z" fill="#32327B"/>
<path d="M7.83333 3.91667C7.83333 1.75357 6.07976 0 3.91667 0C1.75357 0 0 1.75357 0 3.91667L0 7.83333C0 9.99651 1.75357 11.75 3.91667 11.75C6.07976 11.75 7.83333 9.99651 7.83333 7.83333V3.91667Z" fill="#32327B"/>
<path d="M31.3333 3.91667C31.3333 1.75357 29.5798 0 27.4167 0C25.2535 0 23.5 1.75357 23.5 3.91667V7.83333C23.5 9.99651 25.2535 11.75 27.4167 11.75C29.5798 11.75 31.3333 9.99651 31.3333 7.83333V3.91667Z" fill="#32327B"/>
</svg>
