<?xml version="1.0" encoding="UTF-8"?>
<svg id="Layer_2" data-name="Layer 2" xmlns="http://www.w3.org/2000/svg" viewBox="0 0 469.36 708.48">
  <defs>
    <style>
      .cls-1 {
        fill: #fcb315;
      }

      .cls-2 {
        fill: #ed1d61;
      }

      .cls-3 {
        fill: #f1e902;
      }

      .cls-4 {
        fill: #29923b;
      }

      .cls-5 {
        fill: #af0f1f;
      }

      .cls-6 {
        fill: #39b54a;
      }
    </style>
  </defs>
  <g id="box">
    <g id="strawberry">
      <path class="cls-2" d="M232.61,703.48c-29.88,0-57.77-9.98-82.9-29.66-22.57-17.68-43.48-43.68-62.15-77.29-30.99-55.77-56.48-132.46-77.94-234.47-11.63-55.29-1-105.19,30.74-144.3,20.5-25.26,49.91-45.98,85.04-59.9,32.89-13.03,69.96-19.92,107.2-19.92,90.35,0,166.6,29.47,203.96,78.82,29.01,38.32,35.38,87.31,18.94,145.63-35.35,125.41-59.01,205.42-89.46,258.95-32.75,57.58-72.66,82.14-133.44,82.14Z"/>
      <path class="cls-5" d="M232.61,142.94c120.45,0,263.67,56.42,218.09,218.09-66.98,237.62-97.64,337.45-218.09,337.45S50.61,532.61,14.52,361.03C-15.86,216.6,112.16,142.94,232.61,142.94M232.61,132.94c-37.87,0-75.57,7.01-109.05,20.27-35.93,14.24-66.04,35.47-87.09,61.4-15.75,19.41-26.55,41.41-32.11,65.39-5.95,25.71-5.83,53.67.36,83.09,21.56,102.5,47.23,179.65,78.46,235.87,19,34.19,40.34,60.71,63.44,78.8,26.03,20.39,54.95,30.73,85.98,30.73s58.41-6.82,80.78-20.84c21.64-13.56,40.28-34.44,57.01-63.83,30.73-54.02,54.47-134.29,89.93-260.06,8.67-30.75,11.11-59.41,7.26-85.18-3.6-24.07-12.69-45.88-27.03-64.82-20.73-27.39-51.79-48.41-92.3-62.5-34.44-11.98-74.44-18.31-115.65-18.31h0Z"/>
    </g>
    <g id="right-seeds">
      <g>
        <path class="cls-3" d="M374.18,328.4c-3.77,0-7.04-2.5-8.07-6.06-1.07-2.28-4.39-10.27-2.82-18.16,1.29-6.49,7.03-11.2,13.63-11.2.99,0,1.98.11,2.94.31,7.38,1.59,12.21,8.74,10.77,15.95-1.68,8.44-8.12,14.5-10.1,16.19-1.58,1.87-3.91,2.96-6.37,2.96h0Z"/>
        <path class="cls-1" d="M376.93,297.98c.62,0,1.26.07,1.89.2,4.59.99,7.84,5.48,6.93,10.08-1.57,7.91-8.8,13.67-8.8,13.67-.69,1-1.73,1.46-2.76,1.46-1.52,0-3.01-1-3.34-2.76,0,0-4.11-8.12-2.65-15.48.84-4.24,4.57-7.17,8.73-7.17M376.93,287.98c-8.99,0-16.78,6.4-18.54,15.22-1.78,8.93,1.64,17.8,3.03,20.9,1.75,5.47,6.87,9.29,12.76,9.29,3.81,0,7.41-1.63,9.92-4.43,2.63-2.33,9.55-9.22,11.45-18.75,1.96-9.87-4.6-19.65-14.63-21.81-1.31-.28-2.66-.43-4-.43h0Z"/>
      </g>
      <g>
        <path class="cls-3" d="M360.79,447.78c-3.99,0-7.31-2.68-8.18-6.47-.96-2.35-3.87-10.48-1.91-18.27,1.56-6.19,7.1-10.52,13.48-10.52,1.22,0,2.43.16,3.62.48,7.29,1.96,11.76,9.34,9.97,16.46-2.1,8.34-8.83,14.07-10.89,15.66-1.58,1.7-3.76,2.66-6.09,2.66h0Z"/>
        <path class="cls-1" d="M364.19,417.52c.77,0,1.54.1,2.32.31,4.54,1.22,7.56,5.86,6.41,10.42-1.97,7.82-9.48,13.21-9.48,13.21-.7.91-1.68,1.33-2.66,1.33-1.57,0-3.12-1.09-3.37-2.93,0,0-3.7-8.31-1.87-15.59,1.02-4.04,4.65-6.74,8.64-6.74M364.19,407.52c-8.68,0-16.22,5.88-18.33,14.3-2.22,8.84.76,17.88,1.99,21.03,1.54,5.76,6.84,9.93,12.94,9.93,3.61,0,6.98-1.43,9.48-3.96,2.76-2.21,9.99-8.74,12.35-18.14,2.45-9.75-3.61-19.85-13.52-22.51-1.61-.43-3.26-.65-4.91-.65h0Z"/>
      </g>
      <g>
        <path class="cls-3" d="M328.64,557.11c-4.22,0-7.73-3.1-8.31-7.19-.75-2.41-2.94-10.78-.3-18.37,1.94-5.6,7.22-9.36,13.14-9.36,1.63,0,3.23.28,4.77.85,7.09,2.59,10.9,10.33,8.49,17.27-2.82,8.12-10.02,13.24-12.21,14.65-1.54,1.39-3.49,2.15-5.57,2.15h0Z"/>
        <path class="cls-1" d="M333.16,527.2c1.01,0,2.05.17,3.06.54,4.41,1.61,7.02,6.5,5.48,10.94-2.64,7.62-10.59,12.33-10.59,12.33-.69.76-1.59,1.1-2.47,1.1-1.68,0-3.3-1.25-3.39-3.22,0,0-2.96-8.6-.5-15.7,1.28-3.68,4.73-5.99,8.42-5.99M333.16,517.2c-8.05,0-15.23,5.11-17.87,12.72-2.98,8.6-.82,17.84.14,21.11,1.09,6.34,6.6,11.09,13.2,11.09,3.15,0,6.2-1.13,8.59-3.15,2.93-1.94,10.73-7.82,13.91-17,3.3-9.5-1.86-20.09-11.5-23.61-2.09-.76-4.27-1.15-6.48-1.15h0Z"/>
      </g>
      <g>
        <path class="cls-3" d="M320.39,240.09c-1.13,0-2.27-.24-3.32-.7-2.52-.64-10.99-3.2-16.24-10.01-4.49-5.81-3.34-14.37,2.56-19.08,2.46-1.96,5.53-3.04,8.67-3.04,4.35,0,8.37,1.97,11.02,5.42,4.91,6.36,5.49,14.98,5.55,17.51.43,2.31-.11,4.65-1.54,6.54-1.59,2.1-4.09,3.35-6.7,3.35Z"/>
        <path class="cls-1" d="M312.05,212.27c2.67,0,5.31,1.19,7.06,3.47,4.59,5.94,4.51,15.04,4.51,15.04.65,2.29-1.15,4.31-3.24,4.31-.54,0-1.1-.14-1.64-.44,0,0-9.04-1.94-13.96-8.33-2.87-3.72-1.95-9.18,1.72-12.11,1.64-1.31,3.61-1.95,5.55-1.95M312.05,202.27h0c-4.26,0-8.45,1.47-11.78,4.13-8.02,6.39-9.55,18.08-3.4,26.04,5.94,7.69,15.19,10.78,18.59,11.7,1.57.63,3.25.95,4.93.95,4.17,0,8.16-2,10.69-5.34,2.2-2.92,3.09-6.51,2.53-10.07-.13-3.42-1.02-12.85-6.57-20.05-3.61-4.68-9.07-7.36-14.98-7.36h0Z"/>
      </g>
      <g>
        <path class="cls-3" d="M266.63,644.5c-2.61,0-5.11-1.25-6.7-3.36-1.42-1.89-1.97-4.23-1.54-6.54.06-2.53.64-11.15,5.55-17.51,2.65-3.44,6.67-5.41,11.02-5.41,3.13,0,6.21,1.08,8.67,3.04,5.9,4.7,7.05,13.26,2.56,19.07-5.25,6.81-13.72,9.38-16.24,10.01-1.05.46-2.19.7-3.32.7h0Z"/>
        <path class="cls-1" d="M274.97,616.68c1.95,0,3.91.63,5.55,1.95,3.67,2.93,4.59,8.39,1.72,12.11-4.93,6.38-13.96,8.33-13.96,8.33-.54.3-1.1.44-1.64.44-2.09,0-3.9-2.01-3.24-4.31,0,0-.07-9.1,4.51-15.04,1.76-2.28,4.39-3.47,7.06-3.47M274.97,606.68c-5.91,0-11.37,2.68-14.98,7.36-5.55,7.2-6.44,16.63-6.57,20.05-.56,3.56.33,7.15,2.53,10.07,2.53,3.35,6.52,5.34,10.69,5.34,1.68,0,3.36-.33,4.93-.95,3.4-.92,12.65-4.01,18.59-11.7,6.15-7.96,4.62-19.64-3.4-26.04-3.34-2.66-7.52-4.13-11.78-4.13h0Z"/>
      </g>
    </g>
    <g id="mid-seeds">
      <g>
        <path class="cls-3" d="M228.32,302.98c-2.96,0-5.62-1.51-7.13-4-1.7-1.98-7.14-8.94-7.52-17.53-.32-7.34,5.54-13.67,13.07-14.12.28-.02.56-.03.84-.03,7.46,0,13.56,5.84,13.89,13.3.35,8.03-4.13,15.41-5.54,17.51-1.36,2.98-4.27,4.87-7.61,4.87Z"/>
        <path class="cls-1" d="M227.58,272.3c4.74,0,8.69,3.74,8.9,8.52.33,7.5-4.97,14.9-4.97,14.9-.52,1.49-1.85,2.26-3.19,2.26-1.2,0-2.41-.62-3.03-1.91,0,0-6.27-6.79-6.63-14.85-.21-4.69,3.69-8.63,8.38-8.91.18-.01.36-.02.54-.02M227.58,262.3h0c-.38,0-.76.01-1.14.03-10.24.61-18.21,9.29-17.77,19.34.43,9.69,6.19,17.53,8.45,20.25,2.45,3.78,6.6,6.06,11.19,6.06,5.11,0,9.73-2.91,11.97-7.4,1.85-2.85,6.58-11.1,6.18-20.2-.45-10.14-8.74-18.08-18.89-18.08h0Z"/>
      </g>
      <g>
        <path class="cls-3" d="M228.32,410.95c-2.96,0-5.62-1.51-7.13-4-1.7-1.98-7.14-8.94-7.52-17.53-.32-7.34,5.54-13.67,13.07-14.12.28-.02.56-.03.84-.03,7.46,0,13.56,5.84,13.89,13.3.35,8.03-4.13,15.41-5.54,17.51-1.36,2.98-4.27,4.87-7.61,4.87Z"/>
        <path class="cls-1" d="M227.58,380.27c4.74,0,8.69,3.74,8.9,8.52.33,7.5-4.97,14.9-4.97,14.9-.52,1.49-1.85,2.26-3.19,2.26-1.2,0-2.41-.62-3.03-1.91,0,0-6.27-6.79-6.63-14.85-.21-4.69,3.69-8.63,8.38-8.91.18-.01.36-.02.54-.02M227.58,370.27h0c-.38,0-.76.01-1.14.03-10.24.61-18.21,9.29-17.77,19.34.43,9.69,6.19,17.53,8.45,20.25,2.45,3.78,6.6,6.06,11.19,6.06,5.11,0,9.73-2.91,11.97-7.4,1.85-2.85,6.58-11.1,6.18-20.2-.45-10.14-8.74-18.08-18.89-18.08h0Z"/>
      </g>
      <g>
        <path class="cls-3" d="M228.32,525.69c-2.96,0-5.62-1.51-7.13-4-1.7-1.98-7.14-8.94-7.52-17.53-.32-7.34,5.54-13.67,13.07-14.12.28-.02.56-.03.84-.03,7.46,0,13.56,5.84,13.89,13.3.35,8.03-4.13,15.41-5.54,17.51-1.36,2.98-4.27,4.87-7.61,4.87Z"/>
        <path class="cls-1" d="M227.58,495c4.74,0,8.68,3.74,8.9,8.52.33,7.5-4.97,14.9-4.97,14.9-.52,1.49-1.85,2.26-3.19,2.26-1.2,0-2.41-.62-3.03-1.91,0,0-6.27-6.79-6.63-14.85-.21-4.69,3.69-8.63,8.38-8.91.18-.01.36-.02.54-.02M227.58,485c-.38,0-.76.01-1.14.03-10.24.61-18.21,9.29-17.77,19.34.43,9.69,6.19,17.53,8.45,20.25,2.45,3.78,6.6,6.06,11.19,6.06,5.11,0,9.73-2.91,11.97-7.4,1.85-2.85,6.58-11.1,6.18-20.2-.45-10.14-8.74-18.08-18.89-18.08h0Z"/>
      </g>
    </g>
    <g id="left-seeds">
      <g>
        <path class="cls-3" d="M80.97,328.4c-2.46,0-4.79-1.09-6.37-2.96-1.97-1.69-8.42-7.75-10.1-16.19-1.43-7.2,3.4-14.36,10.77-15.95.97-.21,1.96-.31,2.94-.31,6.61,0,12.34,4.71,13.63,11.2,1.57,7.89-1.75,15.88-2.82,18.16-1.02,3.55-4.29,6.06-8.07,6.06Z"/>
        <path class="cls-1" d="M78.22,297.98c4.16,0,7.89,2.93,8.73,7.17,1.47,7.36-2.65,15.48-2.65,15.48-.33,1.76-1.82,2.76-3.34,2.76-1.03,0-2.07-.46-2.76-1.46,0,0-7.23-5.76-8.8-13.67-.92-4.61,2.33-9.09,6.93-10.08.63-.14,1.27-.2,1.89-.2M78.22,287.98h0c-1.34,0-2.68.14-4,.43-10.03,2.16-16.59,11.95-14.62,21.81,1.9,9.53,8.81,16.42,11.45,18.75,2.52,2.8,6.11,4.43,9.92,4.43,5.88,0,11.01-3.82,12.76-9.29,1.39-3.1,4.81-11.96,3.03-20.9-1.76-8.82-9.55-15.22-18.54-15.22h0Z"/>
      </g>
      <g>
        <path class="cls-3" d="M103.81,447.78c-2.34,0-4.52-.96-6.09-2.66-2.06-1.59-8.79-7.33-10.89-15.66-1.79-7.12,2.68-14.51,9.96-16.46,1.18-.32,2.4-.48,3.62-.48,6.38,0,11.93,4.33,13.48,10.52,1.96,7.79-.95,15.92-1.91,18.27-.87,3.79-4.19,6.47-8.18,6.47Z"/>
        <path class="cls-1" d="M100.41,417.52c3.99,0,7.62,2.7,8.64,6.74,1.83,7.28-1.87,15.59-1.87,15.59-.25,1.84-1.79,2.93-3.37,2.93-.97,0-1.96-.42-2.66-1.33,0,0-7.51-5.39-9.48-13.21-1.15-4.55,1.88-9.2,6.41-10.42.78-.21,1.55-.31,2.32-.31M100.41,407.52h0c-1.65,0-3.31.22-4.91.65-9.91,2.66-15.97,12.76-13.52,22.51,2.37,9.4,9.59,15.93,12.35,18.14,2.5,2.54,5.87,3.96,9.48,3.96,6.11,0,11.4-4.16,12.94-9.93,1.23-3.16,4.22-12.19,1.99-21.03-2.12-8.42-9.66-14.3-18.33-14.3h0Z"/>
      </g>
      <g>
        <path class="cls-3" d="M133.25,557.11c-2.09,0-4.04-.76-5.57-2.15-2.2-1.41-9.4-6.53-12.21-14.65-2.41-6.94,1.4-14.69,8.49-17.27,1.54-.56,3.14-.85,4.77-.85,5.92,0,11.2,3.76,13.14,9.36,2.64,7.6.44,15.96-.3,18.37-.58,4.09-4.09,7.19-8.31,7.19Z"/>
        <path class="cls-1" d="M128.73,527.2c3.69,0,7.14,2.31,8.42,5.99,2.46,7.09-.5,15.7-.5,15.7-.09,1.97-1.72,3.22-3.39,3.22-.88,0-1.77-.34-2.47-1.1,0,0-7.95-4.71-10.59-12.33-1.54-4.44,1.07-9.33,5.48-10.94,1.01-.37,2.04-.54,3.06-.54M128.73,517.2c-2.21,0-4.39.39-6.48,1.15-9.64,3.51-14.8,14.11-11.5,23.61,3.19,9.19,10.99,15.06,13.91,17,2.4,2.02,5.45,3.15,8.59,3.15,6.61,0,12.11-4.75,13.2-11.09.96-3.27,3.12-12.51.14-21.11-2.64-7.61-9.82-12.72-17.87-12.72h0Z"/>
      </g>
      <g>
        <path class="cls-3" d="M189.61,644.5c-1.13,0-2.27-.24-3.32-.7-2.52-.64-10.99-3.2-16.24-10.01-4.49-5.82-3.34-14.37,2.56-19.08,2.45-1.96,5.53-3.04,8.67-3.04,4.35,0,8.37,1.97,11.02,5.41,4.91,6.36,5.49,14.98,5.55,17.51.43,2.31-.11,4.65-1.54,6.54-1.59,2.1-4.09,3.36-6.7,3.36Z"/>
        <path class="cls-1" d="M181.28,616.68c2.67,0,5.31,1.19,7.06,3.47,4.59,5.94,4.51,15.04,4.51,15.04.65,2.29-1.16,4.31-3.24,4.31-.54,0-1.1-.14-1.64-.44,0,0-9.04-1.94-13.96-8.33-2.87-3.72-1.95-9.18,1.72-12.11,1.64-1.31,3.61-1.95,5.55-1.95M181.28,606.68h0c-4.26,0-8.45,1.47-11.78,4.13-8.02,6.4-9.55,18.08-3.4,26.04,5.93,7.69,15.19,10.78,18.59,11.7,1.57.63,3.25.95,4.93.95,4.17,0,8.16-2,10.69-5.34,2.2-2.92,3.09-6.51,2.53-10.07-.13-3.42-1.02-12.85-6.57-20.05-3.61-4.68-9.07-7.36-14.98-7.36h0Z"/>
      </g>
      <g>
        <path class="cls-3" d="M141.5,240.09c-2.61,0-5.11-1.25-6.7-3.36-1.42-1.89-1.97-4.23-1.54-6.54.06-2.53.64-11.15,5.55-17.51,2.65-3.44,6.67-5.41,11.02-5.41,3.13,0,6.21,1.08,8.67,3.04,5.9,4.7,7.05,13.26,2.56,19.08-5.26,6.81-13.72,9.38-16.24,10.01-1.05.46-2.19.7-3.32.7h0Z"/>
        <path class="cls-1" d="M149.83,212.27c1.95,0,3.91.63,5.55,1.95,3.67,2.93,4.59,8.39,1.72,12.11-4.93,6.38-13.96,8.33-13.96,8.33-.54.3-1.1.44-1.64.44-2.09,0-3.9-2.01-3.24-4.31,0,0-.07-9.1,4.51-15.04,1.76-2.28,4.39-3.47,7.06-3.47M149.83,202.27c-5.91,0-11.37,2.68-14.98,7.36-5.55,7.19-6.44,16.63-6.57,20.04-.56,3.56.33,7.15,2.53,10.07,2.53,3.35,6.52,5.34,10.69,5.34,1.68,0,3.36-.33,4.93-.95,3.4-.92,12.65-4.01,18.59-11.7,6.14-7.96,4.62-19.64-3.4-26.04-3.34-2.66-7.52-4.13-11.78-4.13h0Z"/>
      </g>
    </g>
    <g>
      <path class="cls-4" d="M234.72,10c.35,0,.7.12.99.37l7.4,6.52c.48.42.64,1.1.38,1.69-3.49,7.96-26.71,63.15-21.7,108.56.08.75.72,1.32,1.46,1.32.01,0,.03,0,.04,0,9.83-.28,18.61-3.47,30.69-7.22,16.85-5.23,34.63-6.53,52.4-6.53,8.01,0,16.02.26,23.95.55,25.87.93,54.46,3.19,72.77,19.02.92.79.53,2.29-.65,2.57-16.41,3.82-33.71,3.66-50.59,5.6-17.03,1.94-34.81,6.66-46.23,17.85-.75.73-.54,1.99.42,2.42,12.1,5.43,24.25,11.08,34.17,19.24,10.45,8.6,18.28,20.51,17.97,33.13-.38,15.57-12.53,28.62-19.32,43.05-.26.56-.79.84-1.32.84-.48,0-.97-.23-1.26-.71-10.1-16.55-21.68-32.39-34.6-47.32-10.9-12.59-25.16-25.57-43.03-25.57-.14,0-.27,0-.41,0-1.45,0-3,.15-4.1.98-1.42,1.07-1.63,2.92-1.69,4.58-.59,16.24,3.11,33.1-3.11,48.4-6.11,15.07-20.75,25.89-35.03,35.83-.26.18-.55.27-.85.27-.53,0-1.05-.28-1.31-.79-13.49-25.75-18.7-54.84-14.89-83.02.13-.93-.61-1.69-1.46-1.69-.18,0-.37.03-.55.11-15.04,5.93-26.85,16.9-38.16,27.58-14.51,13.67-29.01,27.35-43.51,41.03-.29.28-.65.4-1.01.4-.69,0-1.36-.48-1.47-1.27-2.22-15.43-4.22-31.01-2.38-46.47,1.83-15.46,7.87-31.01,19.76-42.38.88-.84.44-2.33-.76-2.53-18.11-3.02-36.54-3.92-55.02-3.92-11.44,0-22.91.35-34.34.75-.02,0-.04,0-.06,0-1.4,0-2.03-1.79-.89-2.65,6.57-4.94,16.32-14.74,19.84-16.97,9.16-5.78,19.01-10.71,29.32-14.7,20.54-7.95,41.46-11.71,62.47-11.71,18.58,0,37.22,2.94,55.74,8.53,0,0,.01,0,.02,0,.14.04.28.06.42.06.73,0,1.38-.55,1.47-1.32,3.6-32.72,12.51-98.89,26.97-114.04.28-.3.67-.45,1.05-.45M234.72,0c-3.11,0-6.13,1.29-8.28,3.54-4.94,5.17-12.4,16.54-20.14,55.38-3.7,18.6-6.49,38.63-8.4,54.53-16.43-4.15-32.81-6.24-48.84-6.24-22.61,0-44.84,4.17-66.08,12.38-10.94,4.23-21.38,9.47-31.05,15.57-2.36,1.5-5.21,4.04-10.03,8.4-3.53,3.19-7.53,6.81-10.49,9.04-3.95,2.97-5.55,8.11-3.98,12.8,1.57,4.69,5.94,7.84,10.88,7.84.13,0,.26,0,.39,0,12.68-.45,23.3-.74,34.01-.74,14.45,0,27.01.57,38.5,1.78-8.02,12.4-11.22,25.73-12.42,35.87-1.94,16.32.04,32.52,2.42,49.06.81,5.61,5.69,9.84,11.37,9.84,2.93,0,5.73-1.11,7.87-3.13,14.5-13.68,29-27.35,43.51-41.02,6.7-6.32,13.99-13.2,22.13-18.67-.64,25.14,5.21,50.12,17.22,73.05,1.99,3.79,5.89,6.15,10.17,6.15,2.36,0,4.62-.71,6.56-2.06,16.33-11.37,31.57-23,38.58-40.27,5.16-12.69,4.61-25.44,4.08-37.77-.14-3.34-.28-6.55-.3-9.69,13.04,1.88,24.22,13.17,31.73,21.84,12.52,14.47,23.83,29.94,33.62,45.99,2.1,3.44,5.76,5.5,9.79,5.5,4.42,0,8.49-2.58,10.37-6.58,1.93-4.1,4.42-8.19,7.05-12.52,6.05-9.96,12.9-21.25,13.23-34.54.36-14.52-7.52-29.5-21.61-41.09-6.97-5.73-14.61-10.19-22.88-14.31,7.63-3.66,17.43-6.19,29.3-7.54,5.6-.64,11.45-1.06,17.1-1.46,11.35-.81,23.09-1.65,34.62-4.33,4.24-.99,7.52-4.22,8.56-8.45,1.04-4.21-.35-8.59-3.64-11.43-20.72-17.9-51.61-20.46-78.94-21.44-7.8-.28-16.11-.56-24.31-.56-22.74,0-39.82,2.15-55.37,6.98-1.58.49-3.11.97-4.59,1.44-5.87,1.85-10.73,3.39-15.29,4.33-1.25-41.48,19.04-89.22,21.52-94.87,2.01-4.58.83-9.89-2.92-13.2l-7.4-6.53c-2.1-1.85-4.8-2.87-7.6-2.87h0Z"/>
      <path class="cls-6" d="M358.19,215.08c-.38,15.57-12.53,28.62-19.32,43.05-.5,1.06-1.97,1.13-2.58.13-10.1-16.55-21.68-32.39-34.6-47.32-10.98-12.69-25.38-25.77-43.44-25.57-1.45,0-3,.15-4.1.98-1.42,1.07-1.63,2.92-1.69,4.58-.59,16.24,3.11,33.1-3.11,48.4-6.11,15.07-20.75,25.89-35.03,35.83-.73.51-1.75.26-2.16-.53-13.49-25.75-18.7-54.84-14.89-83.02.15-1.13-.95-2-2.01-1.58-15.04,5.93-26.85,16.9-38.16,27.58-14.51,13.67-29.01,27.35-43.51,41.03-.87.82-2.31.32-2.48-.86-2.22-15.43-4.22-31.01-2.38-46.47,1.83-15.46,7.87-31.01,19.76-42.38.88-.84.44-2.33-.76-2.53-29.33-4.89-59.46-4.23-89.36-3.18-1.44.05-2.1-1.78-.95-2.65,6.57-4.94,16.32-14.74,19.84-16.97,9.16-5.78,19.01-10.71,29.32-14.7,38.69-14.97,78.74-15.09,118.21-3.18,0,0,.01,0,.02,0,.88.26,1.78-.34,1.88-1.26,3.6-32.72,12.51-98.89,26.97-114.04.55-.57,1.45-.6,2.04-.07l7.4,6.52c.48.42.64,1.1.38,1.69-3.49,7.96-26.71,63.15-21.7,108.56.08.76.74,1.34,1.51,1.32,9.83-.28,18.61-3.47,30.69-7.22,24.45-7.59,50.83-6.9,76.35-5.98,25.87.93,54.46,3.19,72.77,19.02.92.79.53,2.29-.65,2.57-16.41,3.82-33.71,3.66-50.59,5.6-17.03,1.94-34.81,6.66-46.23,17.86-.75.73-.54,1.99.42,2.42,12.1,5.43,24.25,11.08,34.17,19.24,10.45,8.6,18.28,20.51,17.97,33.13Z"/>
    </g>
  </g>
</svg>