<svg width="78" height="78" viewBox="0 0 78 78" fill="none" xmlns="http://www.w3.org/2000/svg">
<g clip-path="url(#clip0_2945_2947)">
<path d="M60.3196 0H17.6804C7.91579 0 0 7.91579 0 17.6804V60.3196C0 70.0842 7.91579 78 17.6804 78H60.3196C70.0842 78 78 70.0842 78 60.3196V17.6804C78 7.91579 70.0842 0 60.3196 0Z" fill="black"/>
<path d="M53.1476 23.1672C55.0999 25.1802 57.5344 26.4068 59.9879 26.9652V25.4536C57.6826 25.2902 55.2707 24.5649 53.1476 23.1672ZM39.0453 13.1973V47.0001C39.0453 51.4285 35.8626 54.2771 31.9924 54.2771C30.7086 54.2771 29.4894 53.9771 28.4297 53.4226C29.7743 55.1393 31.8974 56.1268 34.2256 56.1268C38.0959 56.1268 41.2787 53.2783 41.2787 48.8459V15.0431H47.4125C47.2413 14.436 47.1043 13.8197 47.0022 13.1973H39.0453ZM34.013 32.8484V31.1735C33.2381 31.0443 32.4633 31.0026 31.8215 31.0026C23.0898 31.0026 15.7783 38.0101 15.7783 46.7001C15.7783 52.4048 18.5548 57.2814 22.7744 60.168C19.8348 57.2511 18.0117 53.1681 18.0117 48.5459C18.0117 39.871 25.3003 32.8674 34.013 32.8484Z" fill="#2DCCD3"/>
<path d="M47.9024 46.4416C47.9024 57.2358 39.6456 62.9557 31.8632 62.9557C28.4943 62.9557 25.3647 61.9379 22.7744 60.168C25.6837 63.0544 29.687 64.8015 34.0964 64.8015C41.8788 64.8015 50.1358 59.0816 50.1358 48.2876V30.6987C49.361 30.1745 48.6165 29.563 47.9024 28.849V46.4416ZM28.4299 53.4226C27.4803 52.2223 26.9144 50.6689 26.9144 48.8458C26.9144 43.7298 30.9137 41.0257 36.2462 41.5876V33.0192C35.4715 32.8902 34.6967 32.8483 34.0509 32.8483H34.013V39.738C28.6805 39.1799 24.681 41.8801 24.681 47C24.681 49.9928 26.2117 52.264 28.4299 53.4226ZM59.988 26.9651V33.3649C56.4444 33.3649 53.0907 32.6888 50.1358 30.6987C53.5768 34.1397 57.7509 35.2145 62.2212 35.2145V27.2993C61.469 27.2489 60.7221 27.1372 59.988 26.9651ZM53.1476 23.1672C51.26 21.2263 49.8205 18.5524 49.2356 15.043H47.4125C48.4532 18.8372 50.5953 21.4845 53.1476 23.1672Z" fill="#F1204A"/>
<path d="M31.8634 62.9557C39.6456 62.9557 47.9026 57.2356 47.9026 46.4416V28.849C48.6168 29.563 49.3612 30.1745 50.136 30.6986C53.0908 32.6889 56.4445 33.3649 59.9882 33.3649V26.9651C57.5346 26.4069 55.1 25.1801 53.1478 23.1672C50.5955 21.4845 48.4533 18.8372 47.4127 15.043H41.2789V48.8459C41.2789 53.2782 38.096 56.1267 34.2258 56.1267C31.8975 56.1267 29.7745 55.1392 28.4299 53.4225C26.2119 52.2642 24.6813 49.9928 24.6813 47C24.6813 41.8801 28.6807 39.1797 34.0131 39.738V32.8483C25.3003 32.8673 18.0117 39.871 18.0117 48.5458C18.0117 53.1681 19.8348 57.2509 22.7747 60.1678C25.3649 61.9377 28.4945 62.9557 31.8634 62.9557Z" fill="white"/>
</g>
<defs>
<clipPath id="clip0_2945_2947">
<rect width="78" height="78" fill="white"/>
</clipPath>
</defs>
</svg>
