<svg width="79" height="78" viewBox="0 0 79 78" fill="none" xmlns="http://www.w3.org/2000/svg">
<g clip-path="url(#clip0_2945_2952)">
<path fill-rule="evenodd" clip-rule="evenodd" d="M18.0499 0.378906H60.9498C65.6315 0.392236 70.1176 2.24288 73.4281 5.52655C76.7386 8.81023 78.6044 13.26 78.6178 17.9038V60.1025C78.6027 64.7452 76.7362 69.1934 73.4259 72.4757C70.1156 75.758 65.6304 77.6078 60.9498 77.6211H18.0499C13.3692 77.6078 8.88408 75.758 5.57377 72.4757C2.26346 69.1934 0.396953 64.7452 0.381836 60.1025V17.9038C0.395275 13.26 2.26104 8.81023 5.57153 5.52655C8.88202 2.24288 13.3681 0.392236 18.0499 0.378906Z" fill="white"/>
<path fill-rule="evenodd" clip-rule="evenodd" d="M66.7943 27.9522C66.7943 27.9522 66.2531 24.163 64.5786 22.4642C62.4585 20.2665 60.0773 20.2539 58.9949 20.1212C51.2019 19.5781 39.4741 19.5781 39.4741 19.5781C39.4741 19.5781 27.7782 19.5781 19.9788 20.1402C18.8901 20.2728 16.5152 20.2854 14.3951 22.4832C12.7206 24.1567 12.1858 27.9711 12.1858 27.9711C11.8408 30.9422 11.6559 33.9293 11.6318 36.9199V41.1132C11.6562 44.1038 11.8411 47.0909 12.1858 50.062C12.1858 50.062 12.7333 53.8511 14.3951 55.5499C16.5152 57.7477 19.3039 57.6782 20.5518 57.9119C25.0086 58.335 39.4996 58.4613 39.4996 58.4613C39.4996 58.4613 51.2146 58.4613 59.0076 57.8866C60.0964 57.7603 62.4712 57.7477 64.5914 55.5499C66.2659 53.8764 66.8134 50.062 66.8134 50.062C67.1585 47.0889 67.3434 44.0996 67.3673 41.1069V36.9009C67.3349 33.9082 67.1457 30.9191 66.8007 27.9459L66.7943 27.9522Z" fill="#FF0000"/>
<path fill-rule="evenodd" clip-rule="evenodd" d="M33.7256 46.1704V30.6348L48.7768 38.4341L33.7256 46.1704Z" fill="white"/>
</g>
<defs>
<clipPath id="clip0_2945_2952">
<rect width="79" height="78" fill="white"/>
</clipPath>
</defs>
</svg>
